<svg width="549" height="196" viewBox="0 0 549 196" fill="none" xmlns="http://www.w3.org/2000/svg">
<rect width="169" height="196" rx="23.3121" fill="url(#paint0_linear_5513_147)"/>
<rect x="190" width="169" height="196" rx="23.3121" fill="url(#paint1_linear_5513_147)"/>
<rect x="380" width="169" height="196" rx="23.3121" fill="url(#paint2_linear_5513_147)"/>
<path d="M57.6126 146.245C56.2744 146.245 54.9934 146.057 53.7696 145.682C52.5457 145.29 51.5747 144.792 50.8567 144.189L51.9582 141.716C52.6436 142.255 53.4921 142.704 54.5039 143.063C55.5156 143.422 56.5519 143.601 57.6126 143.601C58.5101 143.601 59.2362 143.503 59.7911 143.307C60.3459 143.112 60.7539 142.851 61.015 142.524C61.276 142.181 61.4066 141.798 61.4066 141.374C61.4066 140.852 61.2189 140.435 60.8436 140.125C60.4683 139.799 59.9787 139.546 59.3749 139.367C58.7875 139.171 58.1266 138.991 57.3923 138.828C56.6742 138.665 55.9481 138.477 55.2137 138.265C54.4957 138.037 53.8348 137.751 53.2311 137.408C52.6436 137.049 52.1622 136.576 51.7869 135.989C51.4115 135.401 51.2239 134.651 51.2239 133.737C51.2239 132.807 51.4687 131.958 51.9582 131.191C52.4641 130.408 53.2229 129.788 54.2346 129.331C55.2627 128.857 56.56 128.621 58.1266 128.621C59.1546 128.621 60.1746 128.751 61.1863 129.012C62.198 129.274 63.0792 129.649 63.8299 130.138L62.8263 132.611C62.0593 132.154 61.2679 131.819 60.452 131.607C59.636 131.379 58.8528 131.264 58.1021 131.264C57.2209 131.264 56.5029 131.371 55.9481 131.583C55.4096 131.795 55.0098 132.072 54.7487 132.415C54.5039 132.758 54.3815 133.149 54.3815 133.59C54.3815 134.112 54.561 134.536 54.92 134.863C55.2953 135.173 55.7767 135.417 56.3642 135.597C56.968 135.776 57.637 135.956 58.3714 136.135C59.1057 136.299 59.8319 136.486 60.5499 136.698C61.2842 136.911 61.9451 137.188 62.5326 137.531C63.1364 137.873 63.6177 138.338 63.9768 138.926C64.3521 139.513 64.5397 140.256 64.5397 141.153C64.5397 142.067 64.2868 142.916 63.7809 143.699C63.2914 144.466 62.5326 145.086 61.5045 145.559C60.4764 146.016 59.1791 146.245 57.6126 146.245ZM73.276 146.171C71.9379 146.171 70.7466 145.886 69.7022 145.315C68.6579 144.727 67.8338 143.928 67.23 142.916C66.6262 141.904 66.3243 140.754 66.3243 139.464C66.3243 138.159 66.6262 137.009 67.23 136.013C67.8338 135.001 68.6579 134.21 69.7022 133.639C70.7466 133.068 71.9379 132.782 73.276 132.782C74.6304 132.782 75.8298 133.068 76.8742 133.639C77.9349 134.21 78.759 134.993 79.3464 135.989C79.9502 136.984 80.2521 138.143 80.2521 139.464C80.2521 140.754 79.9502 141.904 79.3464 142.916C78.759 143.928 77.9349 144.727 76.8742 145.315C75.8298 145.886 74.6304 146.171 73.276 146.171ZM73.276 143.552C74.0266 143.552 74.6957 143.389 75.2831 143.063C75.8706 142.736 76.3275 142.263 76.6539 141.643C76.9966 141.023 77.1679 140.297 77.1679 139.464C77.1679 138.616 76.9966 137.89 76.6539 137.286C76.3275 136.666 75.8706 136.193 75.2831 135.866C74.6957 135.54 74.0348 135.377 73.3004 135.377C72.5498 135.377 71.8807 135.54 71.2933 135.866C70.7221 136.193 70.2652 136.666 69.9225 137.286C69.5798 137.89 69.4085 138.616 69.4085 139.464C69.4085 140.297 69.5798 141.023 69.9225 141.643C70.2652 142.263 70.7221 142.736 71.2933 143.063C71.8807 143.389 72.5416 143.552 73.276 143.552ZM83.178 146V127.838H86.2377V146H83.178ZM98.3067 146V143.356L98.1353 142.793V138.167C98.1353 137.27 97.8661 136.576 97.3276 136.087C96.7891 135.581 95.9732 135.328 94.8798 135.328C94.1455 135.328 93.4193 135.442 92.7013 135.67C91.9996 135.899 91.404 136.217 90.9144 136.625L89.715 134.398C90.4167 133.859 91.249 133.459 92.2117 133.198C93.1909 132.921 94.2026 132.782 95.247 132.782C97.1399 132.782 98.6004 133.239 99.6285 134.153C100.673 135.05 101.195 136.446 101.195 138.338V146H98.3067ZM94.1944 146.171C93.2153 146.171 92.3586 146.008 91.6243 145.682C90.89 145.339 90.3188 144.874 89.9108 144.287C89.5192 143.683 89.3234 143.006 89.3234 142.255C89.3234 141.521 89.4947 140.86 89.8374 140.272C90.1964 139.685 90.7757 139.22 91.5753 138.877C92.3749 138.534 93.4356 138.363 94.7574 138.363H98.5515V140.395H94.9777C93.9333 140.395 93.2317 140.566 92.8726 140.909C92.5136 141.235 92.3341 141.643 92.3341 142.133C92.3341 142.687 92.5544 143.128 92.995 143.454C93.4356 143.781 94.0476 143.944 94.8309 143.944C95.5815 143.944 96.2506 143.773 96.838 143.43C97.4418 143.087 97.8742 142.581 98.1353 141.912L98.6494 143.748C98.3556 144.515 97.8253 145.111 97.0583 145.535C96.3077 145.959 95.353 146.171 94.1944 146.171ZM105.122 146V132.929H108.035V136.527L107.692 135.475C108.084 134.593 108.696 133.924 109.528 133.467C110.376 133.011 111.429 132.782 112.685 132.782V135.695C112.555 135.662 112.432 135.646 112.318 135.646C112.204 135.63 112.09 135.621 111.976 135.621C110.817 135.621 109.895 135.964 109.21 136.65C108.524 137.319 108.182 138.322 108.182 139.66V146H105.122Z" fill="white"/>
<path d="M433.305 136.245C431.967 136.245 430.686 136.057 429.462 135.682C428.238 135.29 427.267 134.792 426.549 134.189L427.65 131.716C428.336 132.255 429.184 132.704 430.196 133.063C431.208 133.422 432.244 133.601 433.305 133.601C434.202 133.601 434.928 133.503 435.483 133.307C436.038 133.112 436.446 132.851 436.707 132.524C436.968 132.181 437.099 131.798 437.099 131.374C437.099 130.852 436.911 130.435 436.536 130.125C436.16 129.799 435.671 129.546 435.067 129.367C434.48 129.171 433.819 128.991 433.084 128.828C432.366 128.665 431.64 128.477 430.906 128.265C430.188 128.037 429.527 127.751 428.923 127.408C428.336 127.049 427.854 126.576 427.479 125.989C427.104 125.401 426.916 124.651 426.916 123.737C426.916 122.807 427.161 121.958 427.65 121.191C428.156 120.408 428.915 119.788 429.927 119.331C430.955 118.857 432.252 118.621 433.819 118.621C434.847 118.621 435.867 118.751 436.878 119.012C437.89 119.274 438.771 119.649 439.522 120.138L438.518 122.611C437.751 122.154 436.96 121.819 436.144 121.607C435.328 121.379 434.545 121.264 433.794 121.264C432.913 121.264 432.195 121.371 431.64 121.583C431.102 121.795 430.702 122.072 430.441 122.415C430.196 122.758 430.074 123.149 430.074 123.59C430.074 124.112 430.253 124.536 430.612 124.863C430.987 125.173 431.469 125.417 432.056 125.597C432.66 125.776 433.329 125.956 434.063 126.135C434.798 126.299 435.524 126.486 436.242 126.698C436.976 126.911 437.637 127.188 438.225 127.531C438.828 127.873 439.31 128.338 439.669 128.926C440.044 129.513 440.232 130.256 440.232 131.153C440.232 132.067 439.979 132.916 439.473 133.699C438.983 134.466 438.225 135.086 437.197 135.559C436.169 136.016 434.871 136.245 433.305 136.245ZM459.591 122.782C460.636 122.782 461.558 122.986 462.357 123.394C463.173 123.802 463.81 124.43 464.267 125.279C464.723 126.111 464.952 127.188 464.952 128.51V136H461.892V128.901C461.892 127.743 461.639 126.878 461.133 126.307C460.628 125.736 459.901 125.45 458.955 125.45C458.286 125.45 457.69 125.597 457.168 125.891C456.662 126.184 456.262 126.617 455.969 127.188C455.691 127.759 455.553 128.485 455.553 129.367V136H452.493V128.901C452.493 127.743 452.24 126.878 451.734 126.307C451.228 125.736 450.502 125.45 449.555 125.45C448.886 125.45 448.291 125.597 447.769 125.891C447.263 126.184 446.863 126.617 446.569 127.188C446.292 127.759 446.153 128.485 446.153 129.367V136H443.093V122.929H446.006V126.405L445.492 125.377C445.933 124.528 446.569 123.884 447.401 123.443C448.25 123.002 449.213 122.782 450.29 122.782C451.514 122.782 452.574 123.084 453.472 123.688C454.386 124.292 454.99 125.205 455.283 126.429L454.084 126.013C454.508 125.034 455.21 124.251 456.189 123.663C457.168 123.076 458.302 122.782 459.591 122.782ZM476.915 136V133.356L476.744 132.793V128.167C476.744 127.27 476.474 126.576 475.936 126.087C475.397 125.581 474.581 125.328 473.488 125.328C472.754 125.328 472.028 125.442 471.31 125.67C470.608 125.899 470.012 126.217 469.523 126.625L468.323 124.398C469.025 123.859 469.857 123.459 470.82 123.198C471.799 122.921 472.811 122.782 473.855 122.782C475.748 122.782 477.209 123.239 478.237 124.153C479.281 125.05 479.803 126.446 479.803 128.338V136H476.915ZM472.803 136.171C471.824 136.171 470.967 136.008 470.233 135.682C469.498 135.339 468.927 134.874 468.519 134.287C468.128 133.683 467.932 133.006 467.932 132.255C467.932 131.521 468.103 130.86 468.446 130.272C468.805 129.685 469.384 129.22 470.184 128.877C470.983 128.534 472.044 128.363 473.366 128.363H477.16V130.395H473.586C472.542 130.395 471.84 130.566 471.481 130.909C471.122 131.235 470.942 131.643 470.942 132.133C470.942 132.687 471.163 133.128 471.603 133.454C472.044 133.781 472.656 133.944 473.439 133.944C474.19 133.944 474.859 133.773 475.446 133.43C476.05 133.087 476.483 132.581 476.744 131.912L477.258 133.748C476.964 134.515 476.434 135.111 475.667 135.535C474.916 135.959 473.961 136.171 472.803 136.171ZM483.73 136V122.929H486.643V126.527L486.3 125.475C486.692 124.593 487.304 123.924 488.136 123.467C488.985 123.011 490.037 122.782 491.294 122.782V125.695C491.163 125.662 491.041 125.646 490.927 125.646C490.812 125.63 490.698 125.621 490.584 125.621C489.425 125.621 488.503 125.964 487.818 126.65C487.133 127.319 486.79 128.322 486.79 129.66V136H483.73ZM499.287 136.171C497.851 136.171 496.742 135.804 495.958 135.07C495.175 134.319 494.784 133.218 494.784 131.765V120.041H497.843V131.692C497.843 132.312 497.998 132.793 498.308 133.136C498.635 133.479 499.083 133.65 499.655 133.65C500.34 133.65 500.911 133.471 501.368 133.112L502.225 135.29C501.866 135.584 501.425 135.804 500.903 135.951C500.381 136.098 499.842 136.171 499.287 136.171ZM492.629 125.475V123.027H501.344V125.475H492.629ZM429.487 161V143.866H432.106L439.596 156.374H438.225L445.593 143.866H448.212L448.237 161H445.226L445.202 148.59H445.838L439.572 159.042H438.152L431.788 148.59H432.522V161H429.487ZM458.715 161.171C457.263 161.171 455.99 160.886 454.897 160.315C453.82 159.727 452.979 158.928 452.375 157.916C451.788 156.904 451.494 155.754 451.494 154.464C451.494 153.159 451.78 152.009 452.351 151.013C452.938 150.001 453.738 149.21 454.75 148.639C455.778 148.068 456.945 147.782 458.25 147.782C459.523 147.782 460.657 148.059 461.653 148.614C462.648 149.169 463.431 149.952 464.002 150.964C464.574 151.976 464.859 153.167 464.859 154.538C464.859 154.668 464.851 154.815 464.835 154.978C464.835 155.142 464.826 155.297 464.81 155.444H453.918V153.412H463.195L461.995 154.048C462.012 153.298 461.857 152.637 461.53 152.066C461.204 151.495 460.755 151.046 460.184 150.719C459.629 150.393 458.984 150.23 458.25 150.23C457.499 150.23 456.839 150.393 456.267 150.719C455.713 151.046 455.272 151.503 454.946 152.09C454.636 152.661 454.481 153.338 454.481 154.122V154.611C454.481 155.395 454.66 156.088 455.019 156.692C455.378 157.296 455.884 157.761 456.537 158.087C457.189 158.414 457.94 158.577 458.789 158.577C459.523 158.577 460.184 158.462 460.771 158.234C461.359 158.006 461.881 157.647 462.338 157.157L463.978 159.042C463.39 159.727 462.648 160.258 461.75 160.633C460.869 160.992 459.858 161.171 458.715 161.171ZM472.718 161.171C471.282 161.171 470.172 160.804 469.389 160.07C468.606 159.319 468.214 158.218 468.214 156.765V145.041H471.274V156.692C471.274 157.312 471.429 157.793 471.739 158.136C472.065 158.479 472.514 158.65 473.085 158.65C473.771 158.65 474.342 158.471 474.799 158.112L475.655 160.29C475.296 160.584 474.856 160.804 474.334 160.951C473.811 161.098 473.273 161.171 472.718 161.171ZM466.06 150.475V148.027H474.774V150.475H466.06ZM483.886 161.171C482.434 161.171 481.161 160.886 480.068 160.315C478.991 159.727 478.15 158.928 477.546 157.916C476.959 156.904 476.665 155.754 476.665 154.464C476.665 153.159 476.951 152.009 477.522 151.013C478.109 150.001 478.909 149.21 479.921 148.639C480.949 148.068 482.116 147.782 483.421 147.782C484.694 147.782 485.828 148.059 486.823 148.614C487.819 149.169 488.602 149.952 489.173 150.964C489.744 151.976 490.03 153.167 490.03 154.538C490.03 154.668 490.022 154.815 490.006 154.978C490.006 155.142 489.997 155.297 489.981 155.444H479.088V153.412H488.366L487.166 154.048C487.182 153.298 487.027 152.637 486.701 152.066C486.375 151.495 485.926 151.046 485.355 150.719C484.8 150.393 484.155 150.23 483.421 150.23C482.67 150.23 482.009 150.393 481.438 150.719C480.884 151.046 480.443 151.503 480.117 152.09C479.806 152.661 479.651 153.338 479.651 154.122V154.611C479.651 155.395 479.831 156.088 480.19 156.692C480.549 157.296 481.055 157.761 481.708 158.087C482.36 158.414 483.111 158.577 483.96 158.577C484.694 158.577 485.355 158.462 485.942 158.234C486.53 158.006 487.052 157.647 487.509 157.157L489.149 159.042C488.561 159.727 487.819 160.258 486.921 160.633C486.04 160.992 485.028 161.171 483.886 161.171ZM492.969 161V147.929H495.882V151.527L495.539 150.475C495.931 149.593 496.543 148.924 497.375 148.467C498.224 148.011 499.276 147.782 500.533 147.782V150.695C500.402 150.662 500.28 150.646 500.165 150.646C500.051 150.63 499.937 150.621 499.823 150.621C498.664 150.621 497.742 150.964 497.057 151.65C496.371 152.319 496.029 153.322 496.029 154.66V161H492.969Z" fill="white"/>
<g filter="url(#filter0_i_5513_147)">
<circle cx="84" cy="66" r="30" fill="#1774DD"/>
</g>
<path d="M81.0234 80.4493H82.5523V88.8637H81.0234V80.4493ZM102.039 54.4972L104.125 53.2378L102.04 51.9803L103.569 50.0883L101.18 49.622L101.969 47.3173L99.5617 47.6995L99.5177 45.2639L97.3888 46.4382L96.5116 44.1641L94.9159 46.0025L93.3125 44.1641L92.4315 46.4382L90.3007 45.262L90.2567 47.6976L87.8497 47.3154L88.638 49.6201L86.2492 50.0864L87.7781 51.9784L85.6922 53.2378L87.7781 54.4933H90.9705L93.7692 61.7878L94.9159 60.473L96.5154 62.3115L97.3916 60.0411L99.5225 61.2174L99.5664 58.7817L101.973 59.164L101.182 56.8535L103.571 56.3872L102.039 54.4972ZM77.7164 58.9222H69.021L71.9832 66.6477H80.6785L77.7164 58.9222ZM88.06 58.9222H79.3646L82.321 66.6477H91.0164L88.06 58.9222ZM81.2939 68.231H72.5985L75.5549 75.9564H84.2503L81.2939 68.231ZM91.6375 68.231H82.9421L85.8985 75.9564H94.5939L91.6375 68.231ZM98.6979 78.9205H73.642L64.875 56.0222H89.9194L98.6979 78.9205ZM96.8164 77.4872L92.678 66.7021L89.1158 57.3934H66.8023L74.4914 77.4853H96.8202L96.8164 77.4872Z" fill="white"/>
<path d="M95.4733 58.2918C96.2114 58.0021 96.8877 57.5912 97.4636 57.0826C98.0395 56.5741 98.5037 55.9779 98.8297 55.328C99.1557 54.6781 99.3371 53.9873 99.3635 53.295C99.39 52.6027 99.261 51.9224 98.984 51.2931C98.7069 50.6638 98.2871 50.0977 97.7487 49.6271C97.2102 49.1566 96.5636 48.7908 95.8458 48.5507C95.128 48.3106 94.3529 48.2009 93.565 48.2278C92.777 48.2546 91.9916 48.4176 91.2535 48.7073L93.3634 53.4996L95.4733 58.2918Z" fill="#E7EA0D"/>
<g filter="url(#filter1_i_5513_147)">
<circle cx="274" cy="66" r="30" fill="#0CC13F"/>
</g>
<g clip-path="url(#clip0_5513_147)">
<path d="M262.134 56.2247C262.535 55.2901 263.201 54.4936 264.05 53.9343C264.899 53.3749 265.894 53.0772 266.911 53.0781H280.124C282.201 53.0781 284.079 54.316 284.897 56.2247L286.542 60.0628C286.698 60.4263 286.978 60.7254 287.331 60.9019C288.37 61.4211 289.107 62.3869 289.336 63.523L290.031 67.0101C290.101 67.3452 290.134 67.6844 290.133 68.0278V68.8856C290.133 70.5762 289.323 72.0903 288.056 73.0332V76.9627C288.056 77.2382 287.947 77.5023 287.752 77.697C287.557 77.8918 287.293 78.0012 287.018 78.0012H282.864C282.588 78.0012 282.324 77.8918 282.13 77.697C281.935 77.5023 281.825 77.2382 281.825 76.9627V74.1838C279.142 74.2835 276.124 74.3666 273.518 74.3666C270.911 74.3666 267.893 74.2835 265.21 74.1838V76.9627C265.21 77.2382 265.101 77.5023 264.906 77.697C264.711 77.8918 264.447 78.0012 264.172 78.0012H260.018C259.742 78.0012 259.478 77.8918 259.283 77.697C259.089 77.5023 258.979 77.2382 258.979 76.9627V73.0332C257.712 72.0903 256.902 70.5762 256.902 68.8856V68.0278C256.903 67.6861 256.937 67.3452 257.004 67.0101L257.7 63.5209C257.928 62.3869 258.666 61.4191 259.702 60.9019C260.058 60.7257 260.338 60.428 260.493 60.0628L262.138 56.2247H262.134ZM276.153 57.2839C276.078 57.2396 275.989 57.2225 275.902 57.2354C275.815 57.2482 275.735 57.2902 275.676 57.3545L269.466 63.9737C269.414 64.0292 269.38 64.0987 269.367 64.1735C269.354 64.2483 269.363 64.3252 269.393 64.3948C269.424 64.4645 269.473 64.5238 269.537 64.5655C269.6 64.6073 269.674 64.6297 269.75 64.63H272.328L270.93 69.1888C270.905 69.2732 270.908 69.3636 270.94 69.4456C270.972 69.5276 271.031 69.5966 271.106 69.6416C271.262 69.7309 271.459 69.7039 271.584 69.571L277.566 62.9518C277.617 62.8962 277.652 62.8268 277.665 62.752C277.677 62.6772 277.668 62.6003 277.638 62.5307C277.608 62.461 277.558 62.4017 277.495 62.3599C277.431 62.3182 277.357 62.2958 277.281 62.2955H274.704L276.328 57.7367C276.353 57.6523 276.349 57.5619 276.317 57.4799C276.286 57.3978 276.227 57.3288 276.151 57.2839H276.153Z" fill="white"/>
</g>
<g filter="url(#filter2_i_5513_147)">
<circle cx="464" cy="66" r="30" fill="#920CAA"/>
</g>
<g clip-path="url(#clip1_5513_147)">
<path d="M463.894 52.5996C464.185 52.5996 464.465 52.7122 464.67 52.9125C464.876 53.1128 464.992 53.3846 464.992 53.6679V56.8727C464.992 57.1561 464.876 57.4278 464.67 57.6281C464.465 57.8285 464.185 57.941 463.894 57.941C463.603 57.941 463.324 57.8285 463.118 57.6281C462.912 57.4278 462.796 57.1561 462.796 56.8727V53.6679C462.796 53.3846 462.912 53.1128 463.118 52.9125C463.324 52.7122 463.603 52.5996 463.894 52.5996ZM454.522 56.3001C454.728 56.0999 455.007 55.9874 455.298 55.9874C455.589 55.9874 455.869 56.0999 456.075 56.3001L458.084 58.253C458.29 58.4535 458.406 58.7256 458.406 59.0093C458.406 59.293 458.29 59.565 458.084 59.7656C457.878 59.9662 457.598 60.0789 457.306 60.0789C457.015 60.0789 456.735 59.9662 456.529 59.7656L454.522 57.8107C454.316 57.6104 454.201 57.3387 454.201 57.0554C454.201 56.7721 454.316 56.5005 454.522 56.3001ZM450.719 65.419C450.719 65.1357 450.834 64.8639 451.04 64.6636C451.246 64.4633 451.525 64.3507 451.817 64.3507H455.299C455.591 64.3507 455.87 64.4633 456.076 64.6636C456.282 64.8639 456.397 65.1357 456.397 65.419C456.397 65.7023 456.282 65.974 456.076 66.1744C455.87 66.3747 455.591 66.4873 455.299 66.4873H451.817C451.525 66.4873 451.246 66.3747 451.04 66.1744C450.834 65.974 450.719 65.7023 450.719 65.419ZM471.58 65.419C471.58 65.1357 471.695 64.8639 471.901 64.6636C472.107 64.4633 472.386 64.3507 472.678 64.3507H475.971C476.263 64.3507 476.542 64.4633 476.748 64.6636C476.954 64.8639 477.069 65.1357 477.069 65.419C477.069 65.7023 476.954 65.974 476.748 66.1744C476.542 66.3747 476.263 66.4873 475.971 66.4873H472.678C472.386 66.4873 472.107 66.3747 471.901 66.1744C471.695 65.974 471.58 65.7023 471.58 65.419ZM473.235 56.3471C473.083 56.2004 472.88 56.1145 472.665 56.1066C472.451 56.0987 472.241 56.1693 472.078 56.3044L462.899 63.9448C462.688 64.1209 462.517 64.338 462.396 64.5823C462.276 64.8265 462.21 65.0925 462.202 65.3632C462.193 65.6339 462.243 65.9033 462.348 66.1541C462.453 66.405 462.61 66.6317 462.81 66.8199C463.011 67.0081 463.249 67.1535 463.51 67.2468C463.771 67.3402 464.05 67.3794 464.328 67.3619C464.605 67.3445 464.876 67.2708 465.123 67.1456C465.37 67.0203 465.587 66.8463 465.761 66.6347L473.301 57.4539C473.432 57.2939 473.498 57.0928 473.486 56.8887C473.474 56.6847 473.386 56.4919 473.238 56.3471H473.235Z" fill="white"/>
<path fill-rule="evenodd" clip-rule="evenodd" d="M460.954 82.2732C458.679 81.8983 456.502 81.0912 454.547 79.8977C452.593 78.7043 450.899 77.148 449.563 75.3177C446.864 71.6212 445.785 67.0329 446.563 62.5623C447.341 58.0917 449.913 54.105 453.712 51.4791C457.511 48.8532 462.227 47.8033 466.821 48.5604C471.416 49.3174 475.514 51.8195 478.213 55.5162C480.912 59.2129 481.991 63.8014 481.213 68.2723C480.435 72.7432 477.863 76.7302 474.064 79.3563C470.265 81.9824 465.549 83.0324 460.954 82.2753V82.2732ZM450.71 73.1223C454.715 70.8682 459.261 69.6844 463.888 69.691C468.688 69.691 473.189 70.9409 477.065 73.1223C478.466 70.8529 479.222 68.2625 479.257 65.6155C479.293 62.9686 478.605 60.36 477.265 58.0562C475.925 55.7524 473.981 53.8359 471.63 52.5025C469.28 51.169 466.608 50.4664 463.888 50.4664C461.167 50.4664 458.495 51.169 456.145 52.5025C453.794 53.8359 451.85 55.7524 450.51 58.0562C449.17 60.36 448.482 62.9686 448.518 65.6155C448.553 68.2625 449.309 70.8529 450.71 73.1223Z" fill="white"/>
</g>
<path d="M262.523 126.989H271.041V129.608H262.523V126.989ZM262.767 134.332H272.436V137H259.585V119.866H272.093V122.534H262.767V134.332ZM280.811 137L273.321 119.866H276.772L283.455 135.36H281.472L288.228 119.866H291.41L283.944 137H280.811ZM227.238 161.245C225.932 161.245 224.717 161.033 223.591 160.608C222.481 160.168 221.51 159.556 220.678 158.773C219.862 157.973 219.226 157.035 218.769 155.958C218.312 154.881 218.083 153.706 218.083 152.433C218.083 151.16 218.312 149.985 218.769 148.908C219.226 147.831 219.87 146.901 220.702 146.118C221.535 145.318 222.506 144.706 223.615 144.282C224.725 143.841 225.941 143.621 227.262 143.621C228.666 143.621 229.947 143.866 231.105 144.355C232.264 144.828 233.243 145.538 234.043 146.485L231.987 148.418C231.366 147.749 230.673 147.252 229.906 146.925C229.139 146.583 228.307 146.411 227.409 146.411C226.512 146.411 225.688 146.558 224.937 146.852C224.203 147.146 223.558 147.562 223.003 148.1C222.465 148.639 222.04 149.275 221.73 150.01C221.437 150.744 221.29 151.552 221.29 152.433C221.29 153.314 221.437 154.122 221.73 154.856C222.04 155.59 222.465 156.227 223.003 156.765C223.558 157.304 224.203 157.72 224.937 158.014C225.688 158.307 226.512 158.454 227.409 158.454C228.307 158.454 229.139 158.291 229.906 157.965C230.673 157.622 231.366 157.108 231.987 156.423L234.043 158.381C233.243 159.311 232.264 160.021 231.105 160.51C229.947 161 228.658 161.245 227.238 161.245ZM244.215 147.782C245.259 147.782 246.189 147.986 247.005 148.394C247.837 148.802 248.49 149.43 248.963 150.279C249.437 151.111 249.673 152.188 249.673 153.51V161H246.614V153.901C246.614 152.743 246.336 151.878 245.781 151.307C245.243 150.736 244.484 150.45 243.505 150.45C242.787 150.45 242.15 150.597 241.596 150.891C241.041 151.184 240.608 151.625 240.298 152.213C240.005 152.784 239.858 153.51 239.858 154.391V161H236.798V142.838H239.858V151.454L239.197 150.377C239.654 149.544 240.315 148.908 241.179 148.467C242.061 148.011 243.072 147.782 244.215 147.782ZM261.608 161V158.356L261.436 157.793V153.167C261.436 152.27 261.167 151.576 260.629 151.087C260.09 150.581 259.274 150.328 258.181 150.328C257.447 150.328 256.72 150.442 256.002 150.67C255.301 150.899 254.705 151.217 254.216 151.625L253.016 149.398C253.718 148.859 254.55 148.459 255.513 148.198C256.492 147.921 257.504 147.782 258.548 147.782C260.441 147.782 261.902 148.239 262.93 149.153C263.974 150.05 264.496 151.446 264.496 153.338V161H261.608ZM257.496 161.171C256.516 161.171 255.66 161.008 254.925 160.682C254.191 160.339 253.62 159.874 253.212 159.287C252.82 158.683 252.625 158.006 252.625 157.255C252.625 156.521 252.796 155.86 253.139 155.272C253.498 154.685 254.077 154.22 254.876 153.877C255.676 153.534 256.737 153.363 258.059 153.363H261.853V155.395H258.279C257.234 155.395 256.533 155.566 256.174 155.909C255.815 156.235 255.635 156.643 255.635 157.133C255.635 157.687 255.856 158.128 256.296 158.454C256.737 158.781 257.349 158.944 258.132 158.944C258.883 158.944 259.552 158.773 260.139 158.43C260.743 158.087 261.175 157.581 261.436 156.912L261.95 158.748C261.657 159.515 261.126 160.111 260.359 160.535C259.609 160.959 258.654 161.171 257.496 161.171ZM268.423 161V147.929H271.336V151.527L270.993 150.475C271.385 149.593 271.997 148.924 272.829 148.467C273.677 148.011 274.73 147.782 275.987 147.782V150.695C275.856 150.662 275.734 150.646 275.619 150.646C275.505 150.63 275.391 150.621 275.277 150.621C274.118 150.621 273.196 150.964 272.511 151.65C271.825 152.319 271.483 153.322 271.483 154.66V161H268.423ZM284.386 165.92C283.179 165.92 281.996 165.757 280.837 165.43C279.695 165.12 278.756 164.663 278.022 164.06L279.393 161.759C279.964 162.232 280.682 162.607 281.547 162.885C282.428 163.179 283.317 163.325 284.215 163.325C285.651 163.325 286.703 162.991 287.372 162.322C288.042 161.669 288.376 160.682 288.376 159.36V157.035L288.621 154.073L288.523 151.111V147.929H291.436V159.017C291.436 161.383 290.832 163.121 289.624 164.231C288.417 165.357 286.671 165.92 284.386 165.92ZM283.995 160.413C282.754 160.413 281.628 160.151 280.617 159.629C279.621 159.091 278.83 158.348 278.242 157.402C277.671 156.455 277.386 155.346 277.386 154.073C277.386 152.816 277.671 151.715 278.242 150.768C278.83 149.822 279.621 149.088 280.617 148.565C281.628 148.043 282.754 147.782 283.995 147.782C285.104 147.782 286.1 148.002 286.981 148.443C287.862 148.884 288.564 149.569 289.086 150.499C289.624 151.429 289.894 152.62 289.894 154.073C289.894 155.525 289.624 156.725 289.086 157.671C288.564 158.601 287.862 159.295 286.981 159.752C286.1 160.192 285.104 160.413 283.995 160.413ZM284.46 157.818C285.227 157.818 285.912 157.663 286.516 157.353C287.12 157.026 287.585 156.586 287.911 156.031C288.254 155.46 288.425 154.807 288.425 154.073C288.425 153.338 288.254 152.694 287.911 152.139C287.585 151.568 287.12 151.135 286.516 150.842C285.912 150.532 285.227 150.377 284.46 150.377C283.693 150.377 282.999 150.532 282.379 150.842C281.775 151.135 281.302 151.568 280.959 152.139C280.633 152.694 280.47 153.338 280.47 154.073C280.47 154.807 280.633 155.46 280.959 156.031C281.302 156.586 281.775 157.026 282.379 157.353C282.999 157.663 283.693 157.818 284.46 157.818ZM301.602 161.171C300.15 161.171 298.877 160.886 297.784 160.315C296.707 159.727 295.866 158.928 295.263 157.916C294.675 156.904 294.381 155.754 294.381 154.464C294.381 153.159 294.667 152.009 295.238 151.013C295.825 150.001 296.625 149.21 297.637 148.639C298.665 148.068 299.832 147.782 301.137 147.782C302.41 147.782 303.544 148.059 304.54 148.614C305.535 149.169 306.318 149.952 306.889 150.964C307.461 151.976 307.746 153.167 307.746 154.538C307.746 154.668 307.738 154.815 307.722 154.978C307.722 155.142 307.713 155.297 307.697 155.444H296.805V153.412H306.082L304.882 154.048C304.899 153.298 304.744 152.637 304.417 152.066C304.091 151.495 303.642 151.046 303.071 150.719C302.516 150.393 301.871 150.23 301.137 150.23C300.386 150.23 299.726 150.393 299.154 150.719C298.6 151.046 298.159 151.503 297.833 152.09C297.523 152.661 297.368 153.338 297.368 154.122V154.611C297.368 155.395 297.547 156.088 297.906 156.692C298.265 157.296 298.771 157.761 299.424 158.087C300.076 158.414 300.827 158.577 301.676 158.577C302.41 158.577 303.071 158.462 303.658 158.234C304.246 158.006 304.768 157.647 305.225 157.157L306.865 159.042C306.277 159.727 305.535 160.258 304.637 160.633C303.756 160.992 302.745 161.171 301.602 161.171ZM310.685 161V147.929H313.598V151.527L313.255 150.475C313.647 149.593 314.259 148.924 315.091 148.467C315.94 148.011 316.992 147.782 318.249 147.782V150.695C318.118 150.662 317.996 150.646 317.882 150.646C317.767 150.63 317.653 150.621 317.539 150.621C316.38 150.621 315.458 150.964 314.773 151.65C314.088 152.319 313.745 153.322 313.745 154.66V161H310.685ZM325.003 161.171C323.909 161.171 322.857 161.033 321.845 160.755C320.85 160.461 320.058 160.111 319.471 159.703L320.646 157.377C321.233 157.753 321.935 158.063 322.751 158.307C323.567 158.552 324.383 158.675 325.199 158.675C326.161 158.675 326.855 158.544 327.279 158.283C327.72 158.022 327.94 157.671 327.94 157.23C327.94 156.871 327.793 156.602 327.499 156.423C327.206 156.227 326.822 156.08 326.349 155.982C325.876 155.884 325.345 155.794 324.758 155.713C324.187 155.631 323.607 155.525 323.02 155.395C322.449 155.248 321.927 155.044 321.453 154.783C320.98 154.505 320.597 154.138 320.303 153.681C320.009 153.224 319.862 152.62 319.862 151.87C319.862 151.038 320.099 150.32 320.572 149.716C321.045 149.096 321.706 148.622 322.555 148.296C323.42 147.953 324.44 147.782 325.615 147.782C326.496 147.782 327.385 147.88 328.283 148.076C329.18 148.272 329.923 148.549 330.51 148.908L329.335 151.233C328.715 150.858 328.087 150.605 327.45 150.475C326.83 150.328 326.21 150.254 325.59 150.254C324.66 150.254 323.966 150.393 323.51 150.67C323.069 150.948 322.849 151.299 322.849 151.723C322.849 152.115 322.996 152.408 323.289 152.604C323.583 152.8 323.966 152.955 324.44 153.069C324.913 153.183 325.435 153.281 326.006 153.363C326.594 153.428 327.173 153.534 327.744 153.681C328.315 153.828 328.838 154.032 329.311 154.293C329.8 154.538 330.192 154.889 330.486 155.346C330.779 155.803 330.926 156.398 330.926 157.133C330.926 157.948 330.682 158.658 330.192 159.262C329.719 159.866 329.042 160.339 328.16 160.682C327.279 161.008 326.227 161.171 325.003 161.171Z" fill="white"/>
<defs>
<filter id="filter0_i_5513_147" x="54" y="31.7693" width="60" height="64.2307" filterUnits="userSpaceOnUse" color-interpolation-filters="sRGB">
<feFlood flood-opacity="0" result="BackgroundImageFix"/>
<feBlend mode="normal" in="SourceGraphic" in2="BackgroundImageFix" result="shape"/>
<feColorMatrix in="SourceAlpha" type="matrix" values="0 0 0 0 0 0 0 0 0 0 0 0 0 0 0 0 0 0 127 0" result="hardAlpha"/>
<feOffset dy="-5.28839"/>
<feGaussianBlur stdDeviation="2.11535"/>
<feComposite in2="hardAlpha" operator="arithmetic" k2="-1" k3="1"/>
<feColorMatrix type="matrix" values="0 0 0 0 0 0 0 0 0 0 0 0 0 0 0 0 0 0 0.24 0"/>
<feBlend mode="normal" in2="shape" result="effect1_innerShadow_5513_147"/>
</filter>
<filter id="filter1_i_5513_147" x="244" y="31.7693" width="60" height="64.2307" filterUnits="userSpaceOnUse" color-interpolation-filters="sRGB">
<feFlood flood-opacity="0" result="BackgroundImageFix"/>
<feBlend mode="normal" in="SourceGraphic" in2="BackgroundImageFix" result="shape"/>
<feColorMatrix in="SourceAlpha" type="matrix" values="0 0 0 0 0 0 0 0 0 0 0 0 0 0 0 0 0 0 127 0" result="hardAlpha"/>
<feOffset dy="-4.23071"/>
<feGaussianBlur stdDeviation="2.11535"/>
<feComposite in2="hardAlpha" operator="arithmetic" k2="-1" k3="1"/>
<feColorMatrix type="matrix" values="0 0 0 0 0 0 0 0 0 0 0 0 0 0 0 0 0 0 0.25 0"/>
<feBlend mode="normal" in2="shape" result="effect1_innerShadow_5513_147"/>
</filter>
<filter id="filter2_i_5513_147" x="434" y="31.7693" width="60" height="64.2307" filterUnits="userSpaceOnUse" color-interpolation-filters="sRGB">
<feFlood flood-opacity="0" result="BackgroundImageFix"/>
<feBlend mode="normal" in="SourceGraphic" in2="BackgroundImageFix" result="shape"/>
<feColorMatrix in="SourceAlpha" type="matrix" values="0 0 0 0 0 0 0 0 0 0 0 0 0 0 0 0 0 0 127 0" result="hardAlpha"/>
<feOffset dy="-4.23071"/>
<feGaussianBlur stdDeviation="2.11535"/>
<feComposite in2="hardAlpha" operator="arithmetic" k2="-1" k3="1"/>
<feColorMatrix type="matrix" values="0 0 0 0 0 0 0 0 0 0 0 0 0 0 0 0 0 0 0.25 0"/>
<feBlend mode="normal" in2="shape" result="effect1_innerShadow_5513_147"/>
</filter>
<linearGradient id="paint0_linear_5513_147" x1="84.5" y1="0" x2="84.5" y2="196" gradientUnits="userSpaceOnUse">
<stop stop-color="#2BDCFF"/>
<stop offset="1" stop-color="#2B84FF"/>
</linearGradient>
<linearGradient id="paint1_linear_5513_147" x1="274.5" y1="0" x2="274.5" y2="196" gradientUnits="userSpaceOnUse">
<stop stop-color="#00F2C1"/>
<stop offset="1" stop-color="#00DE60"/>
</linearGradient>
<linearGradient id="paint2_linear_5513_147" x1="464.5" y1="0" x2="464.5" y2="196" gradientUnits="userSpaceOnUse">
<stop stop-color="#BE27FF"/>
<stop offset="0.240594" stop-color="#B523E3"/>
<stop offset="1" stop-color="#99178A"/>
</linearGradient>
<clipPath id="clip0_5513_147">
<rect width="33.2308" height="33.2308" fill="white" transform="translate(256.902 48.9238)"/>
</clipPath>
<clipPath id="clip1_5513_147">
<rect width="35.1341" height="34.185" fill="white" transform="translate(446.32 48.3281)"/>
</clipPath>
</defs>
</svg>
