<svg width="468" height="462" viewBox="0 0 468 462" fill="none" xmlns="http://www.w3.org/2000/svg">
<g filter="url(#filter0_dddddd_5360_459)">
<rect x="67.9414" y="62.1758" width="42.3529" height="42.3529" rx="21.1765" fill="white"/>
<rect x="67.664" y="61.8983" width="42.9078" height="42.9078" rx="21.4539" stroke="#9183FF" stroke-width="0.554882"/>
</g>
<rect x="45" y="41" width="90" height="90" rx="18.5567" fill="url(#paint0_linear_5360_459)"/>
<path d="M88.8181 81.5928L94.043 64.1816L114.89 64.2161V73.9636H101.354V80.7145H114.08V91.4952H101.354V98.2117H114.856V108.08L79.6445 108.097L95.4397 81.5928H88.8181Z" fill="#E1E1E1"/>
<path d="M93.9931 64.1816H62.7266V73.8947H72.015V108.097H79.577L86.88 89.7731H77.8678L93.9931 64.1816Z" fill="white"/>
<path d="M323.313 86.8162L314.465 86.8938L322.845 82.8164C323.407 84.3386 323.391 86.1172 323.313 86.8162Z" fill="white"/>
<path d="M323.353 93.0662L314.738 93.0273L322.885 97.0659C323.446 95.5437 323.431 93.7652 323.353 93.0662Z" fill="white"/>
<path d="M165.054 71.6285V67.2793H175.734V70.8519C175.048 73.71 171.706 74.4245 170.121 74.4245V75.5118H182.517V82.191H175.734V93.0641C175.859 95.3629 177.449 95.9895 178.229 96.0153H182.517V103.937H174.877C166.644 103.937 164.898 97.724 165.054 94.6174V82.191H161V75.5118C164.493 75.2633 165.158 72.8194 165.054 71.6285Z" fill="white"/>
<path d="M330.271 71.4238V67.0469H341.029V70.6421C340.338 73.5184 336.972 74.2375 335.375 74.2375V75.3317H347.86V82.0533H341.029V92.9955C341.154 95.309 342.756 95.9395 343.541 95.9656H347.86V103.938H340.165C331.872 103.938 330.114 97.6851 330.271 94.5587V82.0533H326.188V75.3317C329.705 75.0815 330.375 72.6222 330.271 71.4238Z" fill="white"/>
<path d="M187.195 103.942V76.3283H195.838L196.716 83.2693C199.412 75.6644 206.824 74.8697 210.193 75.423L208.875 85.3818C199.383 82.8468 196.815 87.2428 196.716 89.7577V103.942H187.195Z" fill="white"/>
<path d="M352.703 103.935V76.2471H361.668L362.58 83.207C365.375 75.5815 373.064 74.7846 376.559 75.3394L375.191 85.3252C365.345 82.7833 362.681 87.1913 362.58 89.7129V103.935H352.703Z" fill="white"/>
<path d="M224.146 75.2832H214.012V103.942H224.146V75.2832Z" fill="white"/>
<path d="M224.146 62H214.012V71.4751H224.146V62Z" fill="white"/>
<path d="M390.361 75.2832H380.227V103.942H390.361V75.2832Z" fill="white"/>
<path d="M390.361 62.0762H380.227V71.5513H390.361V62.0762Z" fill="white"/>
<path d="M240.596 62.0762H230.461V103.938H240.596V62.0762Z" fill="white"/>
<path d="M257.053 62.0762H246.918V103.938H257.053V62.0762Z" fill="white"/>
<path d="M276.439 103.835C273.249 103.835 270.479 103.26 268.127 102.108C265.815 100.916 264.021 99.2485 262.746 97.104C261.471 94.9595 260.832 92.4377 260.832 89.5388C260.832 86.6 261.45 84.0584 262.686 81.9139C263.922 79.7694 265.696 78.1214 268.007 76.9697C270.359 75.818 273.13 75.2422 276.319 75.2422C279.508 75.2422 282.199 75.7982 284.391 76.9101C286.584 77.9824 288.258 79.551 289.414 81.6161C290.57 83.6811 291.148 86.183 291.148 89.1218C291.148 89.5586 291.148 89.9954 291.148 90.4323C291.148 90.8294 291.108 91.167 291.029 91.445H265.915V86.4412H282.897L280.744 89.1813C280.943 88.9034 281.103 88.5658 281.222 88.1687C281.382 87.7318 281.462 87.3744 281.462 87.0964C281.462 85.905 281.242 84.8725 280.804 83.9988C280.365 83.1252 279.747 82.45 278.951 81.9735C278.153 81.4969 277.216 81.2587 276.14 81.2587C274.784 81.2587 273.648 81.5565 272.732 82.1522C271.815 82.7479 271.117 83.6613 270.639 84.8924C270.2 86.0837 269.961 87.5929 269.921 89.4196C269.921 91.0875 270.161 92.5172 270.639 93.7086C271.117 94.9 271.834 95.8134 272.791 96.4488C273.748 97.0444 274.924 97.3423 276.319 97.3423C277.914 97.3423 279.269 97.0444 280.385 96.4488C281.541 95.8531 282.458 94.9595 283.136 93.7682L291.208 95.7339C289.773 98.4344 287.82 100.46 285.348 101.81C282.916 103.16 279.947 103.835 276.439 103.835Z" fill="white"/>
<path d="M309.82 75.4688C312.628 75.4688 314.956 75.8737 316.803 76.6836C318.688 77.4567 320.148 78.5058 321.182 79.8311C322.254 81.1196 322.919 82.5185 323.178 84.0278L314.475 86.8992C314.217 85.3163 313.736 84.1383 313.035 83.3652C312.369 82.5553 311.39 82.1503 310.097 82.1503C308.915 82.1503 307.917 82.4264 307.104 82.9786C306.328 83.494 305.736 84.3407 305.33 85.5188C304.923 86.66 304.72 88.1325 304.72 89.9363C304.72 91.7402 304.942 93.2127 305.385 94.3539C305.829 95.4583 306.457 96.2682 307.27 96.7836C308.083 97.2622 309.043 97.5014 310.152 97.5014C311.076 97.5014 311.833 97.3358 312.425 97.0045C313.053 96.6363 313.57 96.1209 313.977 95.4583C314.383 94.7957 314.642 93.9858 314.753 93.0286L323.233 95.7344C322.975 97.3542 322.273 98.8083 321.127 100.097C320.018 101.348 318.54 102.342 316.693 103.079C314.845 103.815 312.683 104.183 310.208 104.183C307.178 104.183 304.536 103.631 302.281 102.526C300.027 101.385 298.29 99.747 297.071 97.6119C295.852 95.4399 295.242 92.8446 295.242 89.8259C295.242 86.8072 295.852 84.2303 297.071 82.0951C298.29 79.9231 299.99 78.285 302.17 77.1806C304.388 76.0394 306.938 75.4688 309.82 75.4688Z" fill="white"/>
<path d="M422.083 86.8162L413.234 86.8938L421.615 82.8164C422.176 84.3386 422.161 86.1172 422.083 86.8162Z" fill="white"/>
<path d="M422.122 93.0662L413.508 93.0273L421.655 97.0659C422.216 95.5437 422.2 93.7652 422.122 93.0662Z" fill="white"/>
<path d="M408.593 75.4688C411.401 75.4688 413.729 75.8737 415.577 76.6836C417.462 77.4567 418.921 78.5058 419.956 79.8311C421.028 81.1196 421.693 82.5185 421.951 84.0278L413.249 86.8992C412.99 85.3163 412.51 84.1383 411.808 83.3652C411.142 82.5553 410.163 82.1503 408.87 82.1503C407.688 82.1503 406.69 82.4264 405.877 82.9786C405.101 83.494 404.51 84.3407 404.104 85.5188C403.697 86.66 403.494 88.1325 403.494 89.9363C403.494 91.7402 403.715 93.2127 404.159 94.3539C404.602 95.4583 405.23 96.2682 406.043 96.7836C406.856 97.2622 407.817 97.5014 408.925 97.5014C409.849 97.5014 410.607 97.3358 411.199 97.0045C411.826 96.6363 412.344 96.1209 412.75 95.4583C413.157 94.7957 413.416 93.9858 413.526 93.0286L422.007 95.7344C421.748 97.3542 421.046 98.8083 419.9 100.097C418.792 101.348 417.314 102.342 415.466 103.079C413.618 103.815 411.457 104.183 408.981 104.183C405.951 104.183 403.309 103.631 401.055 102.526C398.801 101.385 397.064 99.747 395.845 97.6119C394.625 95.4399 394.016 92.8446 394.016 89.8259C394.016 86.8072 394.625 84.2303 395.845 82.0951C397.064 79.9231 398.763 78.285 400.944 77.1806C403.161 76.0394 405.711 75.4688 408.593 75.4688Z" fill="white"/>
<defs>
<filter id="filter0_dddddd_5360_459" x="-289.18" y="-294.946" width="756.595" height="756.597" filterUnits="userSpaceOnUse" color-interpolation-filters="sRGB">
<feFlood flood-opacity="0" result="BackgroundImageFix"/>
<feColorMatrix in="SourceAlpha" type="matrix" values="0 0 0 0 0 0 0 0 0 0 0 0 0 0 0 0 0 0 127 0" result="hardAlpha"/>
<feOffset/>
<feGaussianBlur stdDeviation="4.24485"/>
<feColorMatrix type="matrix" values="0 0 0 0 1 0 0 0 0 1 0 0 0 0 1 0 0 0 1 0"/>
<feBlend mode="normal" in2="BackgroundImageFix" result="effect1_dropShadow_5360_459"/>
<feColorMatrix in="SourceAlpha" type="matrix" values="0 0 0 0 0 0 0 0 0 0 0 0 0 0 0 0 0 0 127 0" result="hardAlpha"/>
<feOffset/>
<feGaussianBlur stdDeviation="8.48969"/>
<feColorMatrix type="matrix" values="0 0 0 0 1 0 0 0 0 1 0 0 0 0 1 0 0 0 1 0"/>
<feBlend mode="normal" in2="effect1_dropShadow_5360_459" result="effect2_dropShadow_5360_459"/>
<feColorMatrix in="SourceAlpha" type="matrix" values="0 0 0 0 0 0 0 0 0 0 0 0 0 0 0 0 0 0 127 0" result="hardAlpha"/>
<feOffset/>
<feGaussianBlur stdDeviation="29.7139"/>
<feColorMatrix type="matrix" values="0 0 0 0 1 0 0 0 0 1 0 0 0 0 1 0 0 0 1 0"/>
<feBlend mode="normal" in2="effect2_dropShadow_5360_459" result="effect3_dropShadow_5360_459"/>
<feColorMatrix in="SourceAlpha" type="matrix" values="0 0 0 0 0 0 0 0 0 0 0 0 0 0 0 0 0 0 127 0" result="hardAlpha"/>
<feOffset/>
<feGaussianBlur stdDeviation="59.4278"/>
<feColorMatrix type="matrix" values="0 0 0 0 1 0 0 0 0 1 0 0 0 0 1 0 0 0 1 0"/>
<feBlend mode="normal" in2="effect3_dropShadow_5360_459" result="effect4_dropShadow_5360_459"/>
<feColorMatrix in="SourceAlpha" type="matrix" values="0 0 0 0 0 0 0 0 0 0 0 0 0 0 0 0 0 0 127 0" result="hardAlpha"/>
<feOffset/>
<feGaussianBlur stdDeviation="101.876"/>
<feColorMatrix type="matrix" values="0 0 0 0 1 0 0 0 0 1 0 0 0 0 1 0 0 0 1 0"/>
<feBlend mode="normal" in2="effect4_dropShadow_5360_459" result="effect5_dropShadow_5360_459"/>
<feColorMatrix in="SourceAlpha" type="matrix" values="0 0 0 0 0 0 0 0 0 0 0 0 0 0 0 0 0 0 127 0" result="hardAlpha"/>
<feOffset/>
<feGaussianBlur stdDeviation="178.283"/>
<feColorMatrix type="matrix" values="0 0 0 0 1 0 0 0 0 1 0 0 0 0 1 0 0 0 1 0"/>
<feBlend mode="normal" in2="effect5_dropShadow_5360_459" result="effect6_dropShadow_5360_459"/>
<feBlend mode="normal" in="SourceGraphic" in2="effect6_dropShadow_5360_459" result="shape"/>
</filter>
<linearGradient id="paint0_linear_5360_459" x1="90" y1="41" x2="90" y2="131" gradientUnits="userSpaceOnUse">
<stop stop-color="#4939C4"/>
<stop offset="0.5" stop-color="#2F209A"/>
<stop offset="1" stop-color="#0A014B"/>
</linearGradient>
</defs>
</svg>
