<svg width="118" height="19" viewBox="0 0 118 19" fill="none" xmlns="http://www.w3.org/2000/svg">
<path d="M6.1 18V2.675H0.1V0.499999H14.575V2.675H8.575V18H6.1ZM17.2979 18V0.499999H24.1229C25.6562 0.499999 26.9645 0.741666 28.0479 1.225C29.1312 1.70833 29.9645 2.40833 30.5479 3.325C31.1312 4.24167 31.4229 5.33333 31.4229 6.6C31.4229 7.86667 31.1312 8.95833 30.5479 9.875C29.9645 10.775 29.1312 11.4667 28.0479 11.95C26.9645 12.4333 25.6562 12.675 24.1229 12.675H18.6729L19.7979 11.525V18H17.2979ZM28.9979 18L24.5479 11.65H27.2229L31.7229 18H28.9979ZM19.7979 11.775L18.6729 10.55H24.0479C25.6479 10.55 26.8562 10.2083 27.6729 9.525C28.5062 8.825 28.9229 7.85 28.9229 6.6C28.9229 5.35 28.5062 4.38333 27.6729 3.7C26.8562 3.01667 25.6479 2.675 24.0479 2.675H18.6729L19.7979 1.425V11.775ZM32.8119 18L40.7369 0.499999H43.2119L51.1619 18H48.5369L41.4619 1.9H42.4619L35.3869 18H32.8119ZM36.1869 13.625L36.8619 11.625H46.7119L47.4369 13.625H36.1869ZM53.7725 18V0.499999H61.1475C63.0141 0.499999 64.6558 0.866666 66.0725 1.6C67.5058 2.33333 68.6141 3.35833 69.3975 4.675C70.1975 5.99167 70.5975 7.51667 70.5975 9.25C70.5975 10.9833 70.1975 12.5083 69.3975 13.825C68.6141 15.1417 67.5058 16.1667 66.0725 16.9C64.6558 17.6333 63.0141 18 61.1475 18H53.7725ZM56.2725 15.825H60.9975C62.4475 15.825 63.6975 15.55 64.7475 15C65.8141 14.45 66.6391 13.6833 67.2225 12.7C67.8058 11.7 68.0975 10.55 68.0975 9.25C68.0975 7.93333 67.8058 6.78333 67.2225 5.8C66.6391 4.81667 65.8141 4.05 64.7475 3.5C63.6975 2.95 62.4475 2.675 60.9975 2.675H56.2725V15.825ZM74.4268 18V0.499999H76.9268V18H74.4268ZM82.166 18V0.499999H84.216L95.791 14.875H94.716V0.499999H97.216V18H95.166L83.591 3.625H84.666V18H82.166ZM110.354 18.2C109.004 18.2 107.762 17.9833 106.629 17.55C105.496 17.1 104.512 16.475 103.679 15.675C102.846 14.8583 102.196 13.9083 101.729 12.825C101.262 11.7417 101.029 10.55 101.029 9.25C101.029 7.95 101.262 6.75833 101.729 5.675C102.196 4.59167 102.846 3.65 103.679 2.85C104.529 2.03333 105.521 1.40833 106.654 0.974999C107.787 0.524999 109.037 0.3 110.404 0.3C111.787 0.3 113.054 0.524999 114.204 0.974999C115.354 1.425 116.329 2.1 117.129 3L115.579 4.55C114.862 3.85 114.079 3.34167 113.229 3.025C112.396 2.69167 111.487 2.525 110.504 2.525C109.504 2.525 108.571 2.69167 107.704 3.025C106.854 3.35833 106.112 3.825 105.479 4.425C104.862 5.025 104.379 5.74167 104.029 6.575C103.696 7.39167 103.529 8.28333 103.529 9.25C103.529 10.2 103.696 11.0917 104.029 11.925C104.379 12.7417 104.862 13.4583 105.479 14.075C106.112 14.675 106.854 15.1417 107.704 15.475C108.554 15.8083 109.479 15.975 110.479 15.975C111.412 15.975 112.304 15.8333 113.154 15.55C114.021 15.25 114.821 14.7583 115.554 14.075L116.979 15.975C116.112 16.7083 115.096 17.2667 113.929 17.65C112.779 18.0167 111.587 18.2 110.354 18.2ZM114.579 15.65V9.15H116.979V15.975L114.579 15.65Z" fill="white"/>
</svg>
