<svg width="328" height="84" viewBox="0 0 328 84" fill="none" xmlns="http://www.w3.org/2000/svg">
<g filter="url(#filter0_i_1309_261)">
<rect width="86.0323" height="84" rx="16.9355" fill="#080572"/>
</g>
<path d="M53.1888 23.0342H40.5387L37.1484 42.6345C44.5354 27.8605 50.5509 23.9823 53.1888 23.0342Z" fill="#2CD0EE"/>
<path d="M45.0795 33.0383C43.3973 35.3098 38.9068 42.1936 36.9355 45.7992L45.6052 40.4749L50.6854 40.3228L55.4009 35.6073L47.0178 37.1791C48.9103 34.1504 52.3621 31.1265 53.7532 30.3341C56.986 28.4925 59.6671 29.2298 60.4556 31.0101C61.5172 34.7753 58.2523 37.1791 56.1187 37.7706L50.6854 44.2608H54.5124C55.3188 44.2608 56.1361 44.2997 56.8971 44.5665C58.8958 45.2673 59.5103 46.5643 59.6671 47.3706C60.587 52.103 55.9873 53.6354 53.7532 53.7255H43.3711L37.4572 60.7565H53.8321C55.0902 60.7565 56.3575 60.6552 57.5565 60.274C64.4438 58.0845 66.9661 52.7456 67.2894 49.6692C67.8293 44.5312 65.6247 41.3312 63.3468 40.4749C68.2093 37.7706 68.6345 33.8495 68.4722 31.0101C68.2093 26.4129 65.8504 22.7936 58.4843 23.0327C52.9647 23.2118 47.0946 29.7031 45.0795 33.0383Z" fill="#2CD0EE"/>
<path d="M46.2658 30.8913C41.5465 37.2519 38.0225 43.4112 36.6742 45.929L45.1871 42.6854L31.2988 64.9481L57.0529 34.9995L47.6142 37.1198C50.4188 32.3492 54.7606 28.6996 56.3787 27.7111C61.3677 24.6633 66.1743 26.5348 67.9272 27.9925C67.1167 25.1153 64.2892 23.8239 63.1206 23.4704C54.4533 21.1052 48.8278 27.4384 46.2658 30.8913Z" fill="white"/>
<path d="M28.6806 23.0342H15.582L34.5281 56.5664L41.7791 45.2348L35.9315 48.0099L28.6806 23.0342Z" fill="#2CD0EE"/>
<path d="M51.2099 38.6708L40.5234 54.2421L56.9859 35.0359L47.9104 36.9354C51.9029 29.4387 57.5748 26.8035 59.593 26.1748C51.2099 28.6269 46.1646 36.3131 44.6898 39.8497L51.2099 38.6708Z" fill="url(#paint0_linear_1309_261)"/>
<path d="M119.826 63.8277C119.502 63.6613 119.147 63.5168 118.762 63.3942C118.377 63.2716 118 63.2103 117.632 63.2103C117.124 63.2103 116.717 63.3285 116.411 63.565C116.113 63.8014 115.964 64.1167 115.964 64.5108C115.964 64.8086 116.06 65.0626 116.253 65.2727C116.446 65.4742 116.7 65.6493 117.015 65.7982C117.33 65.9471 117.659 66.0872 118 66.2186C118.298 66.3324 118.591 66.4594 118.88 66.5995C119.169 66.7397 119.428 66.9148 119.655 67.125C119.892 67.3352 120.076 67.5935 120.207 67.9001C120.347 68.2066 120.417 68.5875 120.417 69.0429C120.417 69.5421 120.29 69.9975 120.036 70.4092C119.791 70.8208 119.436 71.1448 118.972 71.3813C118.508 71.6177 117.956 71.736 117.317 71.736C116.897 71.736 116.494 71.6878 116.109 71.5914C115.732 71.4951 115.382 71.3725 115.058 71.2236C114.734 71.066 114.445 70.904 114.191 70.7376L114.755 69.7392C114.966 69.8881 115.206 70.0326 115.478 70.1727C115.749 70.3041 116.034 70.4135 116.332 70.5011C116.63 70.5799 116.919 70.6193 117.199 70.6193C117.497 70.6193 117.79 70.5668 118.079 70.4617C118.377 70.3479 118.622 70.1771 118.815 69.9494C119.007 69.7217 119.104 69.4195 119.104 69.0429C119.104 68.7189 119.016 68.4518 118.841 68.2416C118.675 68.0227 118.451 67.8388 118.171 67.6899C117.891 67.5322 117.593 67.3921 117.278 67.2695C116.98 67.1557 116.678 67.033 116.371 66.9017C116.065 66.7616 115.78 66.5952 115.517 66.4025C115.255 66.2011 115.044 65.9558 114.887 65.6668C114.729 65.3778 114.65 65.0275 114.65 64.6159C114.65 64.1167 114.769 63.6832 115.005 63.3154C115.25 62.9388 115.583 62.6454 116.003 62.4352C116.424 62.2163 116.905 62.0981 117.448 62.0805C118.061 62.0805 118.6 62.155 119.064 62.3039C119.537 62.4527 119.953 62.6367 120.312 62.8556L119.826 63.8277ZM123.61 71.6309V61.8309H123.623L128.602 68.8984L128.063 68.7934L133.029 61.8309H133.055V71.6309H131.794V64.721L131.873 65.3647L128.287 70.4354H128.26L124.621 65.3647L124.845 64.7735V71.6309H123.61ZM135.889 71.6309L140.041 61.739H140.119L144.257 71.6309H142.799L139.699 63.7358L140.606 63.1446L137.137 71.6309H135.889ZM138.32 68.0314H141.853L142.274 69.1349H137.952L138.32 68.0314ZM149.619 62.1331C150.101 62.1331 150.543 62.1988 150.946 62.3301C151.358 62.4527 151.713 62.641 152.01 62.895C152.317 63.1402 152.553 63.4468 152.72 63.8146C152.895 64.1736 152.982 64.594 152.982 65.0757C152.982 65.4523 152.926 65.8201 152.812 66.1792C152.707 66.5382 152.527 66.8666 152.273 67.1644C152.019 67.4534 151.686 67.6899 151.275 67.8738C150.872 68.0489 150.373 68.1365 149.777 68.1365H148.372V71.6309H147.097V62.1331H149.619ZM149.751 66.9148C150.127 66.9148 150.438 66.8579 150.684 66.744C150.938 66.6302 151.135 66.4857 151.275 66.3105C151.415 66.1266 151.516 65.9296 151.577 65.7194C151.638 65.5092 151.669 65.3121 151.669 65.1282C151.669 64.9356 151.634 64.7385 151.564 64.5371C151.502 64.3269 151.397 64.1342 151.248 63.9591C151.108 63.7839 150.92 63.6394 150.684 63.5256C150.456 63.4117 150.176 63.3548 149.843 63.3548H148.372V66.9148H149.751ZM151.314 67.6373L153.797 71.6309H152.326L149.803 67.6767L151.314 67.6373ZM155.983 62.1331H162.289V63.3548H159.74V71.6309H158.466V63.3548H155.983V62.1331ZM170.571 62.1331H176.745V63.3548H171.845V66.2448H176.219V67.4666H171.845V70.4092H176.929V71.6309H170.571V62.1331ZM180.191 62.1331H181.466V70.4092H186.287V71.6309H180.191V62.1331ZM189.414 62.1331H195.588V63.3548H190.688V66.2448H195.063V67.4666H190.688V70.4092H195.772V71.6309H189.414V62.1331ZM206.01 70.9215C205.852 71.0266 205.638 71.1448 205.366 71.2762C205.095 71.4075 204.775 71.517 204.407 71.6046C204.048 71.6922 203.654 71.736 203.225 71.736C202.49 71.7272 201.824 71.5958 201.228 71.3419C200.642 71.0879 200.142 70.7419 199.731 70.3041C199.319 69.8662 199 69.3626 198.772 68.7934C198.553 68.2153 198.443 67.6023 198.443 66.9542C198.443 66.2448 198.557 65.5924 198.785 64.9969C199.021 64.3926 199.35 63.8715 199.77 63.4336C200.191 62.987 200.685 62.641 201.255 62.3958C201.833 62.1506 202.463 62.028 203.146 62.028C203.716 62.028 204.232 62.1068 204.696 62.2645C205.161 62.4133 205.559 62.5929 205.892 62.8031L205.38 63.9854C205.117 63.8102 204.797 63.6438 204.421 63.4862C204.053 63.3285 203.641 63.2497 203.186 63.2497C202.722 63.2497 202.284 63.3417 201.872 63.5256C201.46 63.7095 201.097 63.9678 200.782 64.3006C200.466 64.6334 200.217 65.0231 200.033 65.4698C199.858 65.9077 199.77 66.3806 199.77 66.8885C199.77 67.4052 199.849 67.8869 200.007 68.3336C200.173 68.7715 200.405 69.1524 200.703 69.4765C201.009 69.8005 201.377 70.0545 201.806 70.2384C202.236 70.4223 202.717 70.5142 203.251 70.5142C203.733 70.5142 204.162 70.4398 204.539 70.2909C204.915 70.142 205.226 69.9756 205.472 69.7917L206.01 70.9215ZM208.51 62.1331H214.816V63.3548H212.268V71.6309H210.993V63.3548H208.51V62.1331ZM220.413 62.1331C220.895 62.1331 221.337 62.1988 221.74 62.3301C222.151 62.4527 222.506 62.641 222.804 62.895C223.11 63.1402 223.347 63.4468 223.513 63.8146C223.688 64.1736 223.776 64.594 223.776 65.0757C223.776 65.4523 223.719 65.8201 223.605 66.1792C223.5 66.5382 223.321 66.8666 223.067 67.1644C222.813 67.4534 222.48 67.6899 222.068 67.8738C221.665 68.0489 221.166 68.1365 220.571 68.1365H219.165V71.6309H217.891V62.1331H220.413ZM220.544 66.9148C220.921 66.9148 221.232 66.8579 221.477 66.744C221.731 66.6302 221.928 66.4857 222.068 66.3105C222.208 66.1266 222.309 65.9296 222.37 65.7194C222.432 65.5092 222.462 65.3121 222.462 65.1282C222.462 64.9356 222.427 64.7385 222.357 64.5371C222.296 64.3269 222.191 64.1342 222.042 63.9591C221.902 63.7839 221.714 63.6394 221.477 63.5256C221.249 63.4117 220.969 63.3548 220.636 63.3548H219.165V66.9148H220.544ZM222.108 67.6373L224.59 71.6309H223.119L220.597 67.6767L222.108 67.6373ZM227.601 62.1331H228.875V71.6309H227.601V62.1331ZM239.63 70.9215C239.472 71.0266 239.258 71.1448 238.986 71.2762C238.715 71.4075 238.395 71.517 238.027 71.6046C237.668 71.6922 237.274 71.736 236.845 71.736C236.109 71.7272 235.444 71.5958 234.848 71.3419C234.262 71.0879 233.762 70.7419 233.351 70.3041C232.939 69.8662 232.62 69.3626 232.392 68.7934C232.173 68.2153 232.063 67.6023 232.063 66.9542C232.063 66.2448 232.177 65.5924 232.405 64.9969C232.641 64.3926 232.97 63.8715 233.39 63.4336C233.811 62.987 234.305 62.641 234.875 62.3958C235.453 62.1506 236.083 62.028 236.766 62.028C237.336 62.028 237.852 62.1068 238.316 62.2645C238.781 62.4133 239.179 62.5929 239.512 62.8031L239 63.9854C238.737 63.8102 238.417 63.6438 238.041 63.4862C237.673 63.3285 237.261 63.2497 236.806 63.2497C236.342 63.2497 235.904 63.3417 235.492 63.5256C235.08 63.7095 234.717 63.9678 234.402 64.3006C234.086 64.6334 233.837 65.0231 233.653 65.4698C233.478 65.9077 233.39 66.3806 233.39 66.8885C233.39 67.4052 233.469 67.8869 233.627 68.3336C233.793 68.7715 234.025 69.1524 234.323 69.4765C234.629 69.8005 234.997 70.0545 235.426 70.2384C235.856 70.4223 236.337 70.5142 236.871 70.5142C237.353 70.5142 237.782 70.4398 238.159 70.2909C238.535 70.142 238.846 69.9756 239.091 69.7917L239.63 70.9215ZM255.01 70.9215C254.852 71.0266 254.637 71.1448 254.366 71.2762C254.095 71.4075 253.775 71.517 253.407 71.6046C253.048 71.6922 252.654 71.736 252.225 71.736C251.489 71.7272 250.823 71.5958 250.228 71.3419C249.641 71.0879 249.142 70.7419 248.73 70.3041C248.319 69.8662 247.999 69.3626 247.771 68.7934C247.552 68.2153 247.443 67.6023 247.443 66.9542C247.443 66.2448 247.557 65.5924 247.785 64.9969C248.021 64.3926 248.349 63.8715 248.77 63.4336C249.19 62.987 249.685 62.641 250.254 62.3958C250.832 62.1506 251.463 62.028 252.146 62.028C252.715 62.028 253.232 62.1068 253.696 62.2645C254.16 62.4133 254.559 62.5929 254.891 62.8031L254.379 63.9854C254.116 63.8102 253.797 63.6438 253.42 63.4862C253.052 63.3285 252.641 63.2497 252.185 63.2497C251.721 63.2497 251.283 63.3417 250.872 63.5256C250.46 63.7095 250.097 63.9678 249.781 64.3006C249.466 64.6334 249.216 65.0231 249.033 65.4698C248.857 65.9077 248.77 66.3806 248.77 66.8885C248.77 67.4052 248.849 67.8869 249.006 68.3336C249.173 68.7715 249.405 69.1524 249.702 69.4765C250.009 69.8005 250.377 70.0545 250.806 70.2384C251.235 70.4223 251.717 70.5142 252.251 70.5142C252.733 70.5142 253.162 70.4398 253.538 70.2909C253.915 70.142 254.226 69.9756 254.471 69.7917L255.01 70.9215ZM257.615 66.8885C257.615 66.2317 257.738 65.6143 257.983 65.0363C258.237 64.4495 258.587 63.9328 259.034 63.4862C259.481 63.0308 259.993 62.6761 260.571 62.4221C261.158 62.1594 261.788 62.028 262.463 62.028C263.128 62.028 263.75 62.1594 264.328 62.4221C264.915 62.6761 265.431 63.0308 265.878 63.4862C266.333 63.9328 266.688 64.4495 266.942 65.0363C267.196 65.6143 267.323 66.2317 267.323 66.8885C267.323 67.5629 267.196 68.1934 266.942 68.7802C266.688 69.367 266.333 69.8837 265.878 70.3303C265.431 70.7682 264.915 71.1142 264.328 71.3681C263.75 71.6133 263.128 71.736 262.463 71.736C261.788 71.736 261.158 71.6133 260.571 71.3681C259.993 71.1229 259.481 70.7814 259.034 70.3435C258.587 69.9056 258.237 69.3933 257.983 68.8065C257.738 68.2197 257.615 67.5804 257.615 66.8885ZM258.929 66.9017C258.929 67.4009 259.021 67.8694 259.205 68.3073C259.389 68.7364 259.643 69.1174 259.967 69.4502C260.291 69.783 260.667 70.0457 261.096 70.2384C261.525 70.4223 261.99 70.5142 262.489 70.5142C262.979 70.5142 263.439 70.4223 263.868 70.2384C264.297 70.0457 264.67 69.783 264.985 69.4502C265.3 69.1174 265.55 68.7364 265.734 68.3073C265.917 67.8694 266.009 67.3965 266.009 66.8885C266.009 66.3894 265.917 65.9208 265.734 65.4829C265.55 65.0363 265.296 64.6466 264.972 64.3138C264.648 63.981 264.271 63.7226 263.842 63.5387C263.413 63.346 262.953 63.2497 262.463 63.2497C261.963 63.2497 261.499 63.346 261.07 63.5387C260.641 63.7314 260.264 63.9941 259.94 64.3269C259.616 64.6597 259.367 65.0494 259.192 65.4961C259.016 65.9339 258.929 66.4025 258.929 66.9017ZM270.521 71.6309V61.8309H270.534L275.513 68.8984L274.974 68.7934L279.94 61.8309H279.966V71.6309H278.705V64.721L278.784 65.3647L275.197 70.4354H275.171L271.532 65.3647L271.756 64.7735V71.6309H270.521ZM286.282 62.1331C286.973 62.1331 287.565 62.2513 288.055 62.4878C288.545 62.7155 288.922 63.0483 289.185 63.4862C289.456 63.924 289.592 64.4539 289.592 65.0757C289.592 65.4523 289.535 65.8245 289.421 66.1923C289.307 66.5514 289.123 66.8798 288.869 67.1775C288.624 67.4666 288.3 67.6986 287.897 67.8738C287.495 68.0489 287.004 68.1365 286.426 68.1365H285.02V71.6309H283.746V62.1331H286.282ZM286.413 66.9148C286.79 66.9148 287.1 66.8535 287.346 66.7309C287.591 66.6083 287.784 66.455 287.924 66.2711C288.064 66.0785 288.164 65.877 288.226 65.6668C288.287 65.4567 288.318 65.2684 288.318 65.102C288.318 64.9093 288.287 64.7122 288.226 64.5108C288.164 64.3006 288.059 64.1123 287.911 63.9459C287.77 63.7708 287.582 63.6307 287.346 63.5256C287.118 63.4117 286.833 63.3548 286.492 63.3548H285.02V66.9148H286.413ZM290.753 71.6309L294.904 61.739H294.983L299.121 71.6309H297.663L294.563 63.7358L295.469 63.1446L292.001 71.6309H290.753ZM293.183 68.0314H296.717L297.138 69.1349H292.816L293.183 68.0314ZM310.184 71.933L302.841 64.4845L303.209 64.5765L303.235 71.6309H301.961V61.8441H302.027L309.291 69.3188L308.989 69.2531L308.963 62.1331H310.224V71.933H310.184ZM316.528 68.4649L313.008 62.1331H314.571L317.395 67.3746L317.001 67.4009L319.799 62.1331H321.349L317.803 68.4649V71.6309H316.528V68.4649Z" fill="white"/>
<path d="M114.749 12.3809L123.46 39.7628H123.794L132.523 12.3809H140.969L128.546 48.4209H118.726L106.285 12.3809H114.749ZM154.331 48.9488C151.597 48.9488 149.233 48.3681 147.239 47.2067C145.256 46.0335 143.725 44.4028 142.646 42.3145C141.566 40.2145 141.027 37.7802 141.027 35.0115C141.027 32.2193 141.566 29.7791 142.646 27.6909C143.725 25.5909 145.256 23.9602 147.239 22.7987C149.233 21.6255 151.597 21.0389 154.331 21.0389C157.064 21.0389 159.422 21.6255 161.405 22.7987C163.399 23.9602 164.936 25.5909 166.015 27.6909C167.095 29.7791 167.634 32.2193 167.634 35.0115C167.634 37.7802 167.095 40.2145 166.015 42.3145C164.936 44.4028 163.399 46.0335 161.405 47.2067C159.422 48.3681 157.064 48.9488 154.331 48.9488ZM154.366 43.1416C155.609 43.1416 156.648 42.7896 157.481 42.0857C158.313 41.3701 158.941 40.3964 159.363 39.1645C159.798 37.9327 160.015 36.5307 160.015 34.9587C160.015 33.3866 159.798 31.9847 159.363 30.7528C158.941 29.521 158.313 28.5473 157.481 27.8316C156.648 27.116 155.609 26.7582 154.366 26.7582C153.11 26.7582 152.055 27.116 151.198 27.8316C150.353 28.5473 149.714 29.521 149.28 30.7528C148.858 31.9847 148.646 33.3866 148.646 34.9587C148.646 36.5307 148.858 37.9327 149.28 39.1645C149.714 40.3964 150.353 41.3701 151.198 42.0857C152.055 42.7896 153.11 43.1416 154.366 43.1416ZM180.006 12.3809V48.4209H172.509V12.3809H180.006ZM200.388 21.3909V27.0221H184.11V21.3909H200.388ZM187.806 14.915H195.302V40.1148C195.302 40.807 195.408 41.3466 195.619 41.7338C195.83 42.1092 196.123 42.3732 196.499 42.5257C196.886 42.6782 197.332 42.7545 197.836 42.7545C198.188 42.7545 198.54 42.7251 198.892 42.6665C199.244 42.5961 199.514 42.5433 199.702 42.5081L200.881 48.0865C200.505 48.2039 199.977 48.3388 199.297 48.4913C198.616 48.6555 197.789 48.7553 196.816 48.7904C195.009 48.8608 193.425 48.6203 192.064 48.0689C190.715 47.5176 189.665 46.6611 188.914 45.4997C188.163 44.3382 187.794 42.8718 187.806 41.1003V14.915Z" fill="white"/>
<path d="M205.993 48.4209V12.3809H220.423C223.074 12.3809 225.286 12.7739 227.057 13.5599C228.829 14.346 230.16 15.437 231.052 16.8331C231.944 18.2174 232.389 19.813 232.389 21.6197C232.389 23.0275 232.108 24.2652 231.545 25.3328C230.982 26.3886 230.207 27.2568 229.222 27.9372C228.248 28.6059 227.134 29.0811 225.878 29.3626V29.7146C227.251 29.7732 228.535 30.1604 229.732 30.876C230.94 31.5917 231.92 32.5947 232.671 33.8852C233.422 35.164 233.797 36.6891 233.797 38.4606C233.797 40.3729 233.322 42.0799 232.372 43.5815C231.433 45.0715 230.043 46.2505 228.201 47.1187C226.359 47.9868 224.089 48.4209 221.391 48.4209H205.993ZM213.613 42.1913H219.825C221.948 42.1913 223.497 41.7866 224.47 40.9771C225.444 40.1559 225.931 39.0648 225.931 37.7039C225.931 36.7067 225.69 35.8268 225.209 35.0643C224.728 34.3017 224.042 33.7034 223.151 33.2693C222.271 32.8352 221.221 32.6182 220.001 32.6182H213.613V42.1913ZM213.613 27.4621H219.261C220.306 27.4621 221.232 27.2802 222.042 26.9166C222.863 26.5411 223.508 26.0132 223.978 25.3328C224.459 24.6523 224.699 23.837 224.699 22.8867C224.699 21.5845 224.236 20.5345 223.309 19.7367C222.394 18.939 221.092 18.5401 219.402 18.5401H213.613V27.4621ZM238.615 48.4209V21.3909H245.882V26.1071H246.164C246.657 24.4294 247.484 23.1624 248.645 22.306C249.807 21.4378 251.144 21.0037 252.657 21.0037C253.033 21.0037 253.438 21.0272 253.872 21.0741C254.306 21.1211 254.687 21.1856 255.016 21.2677V27.9196C254.664 27.814 254.177 27.7202 253.555 27.6381C252.933 27.5559 252.364 27.5149 251.848 27.5149C250.745 27.5149 249.76 27.7554 248.892 28.2364C248.035 28.7057 247.355 29.3626 246.85 30.2073C246.357 31.052 246.111 32.0257 246.111 33.1285V48.4209H238.615ZM269.952 48.9488C267.171 48.9488 264.778 48.3857 262.772 47.2595C260.777 46.1215 259.24 44.5142 258.161 42.4377C257.082 40.3494 256.542 37.8799 256.542 35.0291C256.542 32.2486 257.082 29.8084 258.161 27.7085C259.24 25.6085 260.76 23.9719 262.719 22.7987C264.69 21.6255 267.001 21.0389 269.652 21.0389C271.436 21.0389 273.096 21.3264 274.633 21.9012C276.181 22.4644 277.53 23.3149 278.68 24.4529C279.841 25.5909 280.745 27.0221 281.39 28.7467C282.035 30.4596 282.358 32.4657 282.358 34.7651V36.824H259.534V32.1783H275.301C275.301 31.0989 275.067 30.1428 274.597 29.3098C274.128 28.4769 273.477 27.8258 272.644 27.3565C271.823 26.8755 270.867 26.635 269.776 26.635C268.638 26.635 267.629 26.899 266.749 27.4269C265.881 27.9431 265.2 28.6411 264.707 29.521C264.215 30.3892 263.962 31.357 263.951 32.4246V36.8416C263.951 38.1791 264.197 39.3346 264.69 40.3084C265.194 41.2821 265.904 42.0329 266.819 42.5609C267.734 43.0888 268.819 43.3528 270.075 43.3528C270.908 43.3528 271.67 43.2355 272.362 43.0008C273.055 42.7662 273.647 42.4142 274.14 41.945C274.633 41.4757 275.008 40.9008 275.266 40.2204L282.2 40.6779C281.848 42.3438 281.126 43.7986 280.035 45.0421C278.956 46.274 277.56 47.236 275.847 47.9282C274.146 48.6086 272.181 48.9488 269.952 48.9488ZM292.389 48.4209L285.033 21.3909H292.617L296.806 39.5517H297.052L301.416 21.3909H308.86L313.295 39.4461H313.523L317.641 21.3909H325.208L317.87 48.4209H309.933L305.288 31.4216H304.953L300.308 48.4209H292.389Z" fill="#2CD0EE"/>
<defs>
<filter id="filter0_i_1309_261" x="0" y="-1.82609" width="86.0332" height="85.8261" filterUnits="userSpaceOnUse" color-interpolation-filters="sRGB">
<feFlood flood-opacity="0" result="BackgroundImageFix"/>
<feBlend mode="normal" in="SourceGraphic" in2="BackgroundImageFix" result="shape"/>
<feColorMatrix in="SourceAlpha" type="matrix" values="0 0 0 0 0 0 0 0 0 0 0 0 0 0 0 0 0 0 127 0" result="hardAlpha"/>
<feOffset dy="-5.02174"/>
<feGaussianBlur stdDeviation="0.913044"/>
<feComposite in2="hardAlpha" operator="arithmetic" k2="-1" k3="1"/>
<feColorMatrix type="matrix" values="0 0 0 0 0 0 0 0 0 0 0 0 0 0 0 0 0 0 0.15 0"/>
<feBlend mode="normal" in2="shape" result="effect1_innerShadow_1309_261"/>
</filter>
<linearGradient id="paint0_linear_1309_261" x1="54.0311" y1="28.2821" x2="44.3225" y2="51.2873" gradientUnits="userSpaceOnUse">
<stop stop-color="#FBFBFB"/>
<stop offset="1" stop-color="#C1C0C0"/>
</linearGradient>
</defs>
</svg>
