<svg width="324" height="64" viewBox="0 0 324 64" fill="none" xmlns="http://www.w3.org/2000/svg">
<path d="M11.54 24.36C9.92 24.36 8.41 24.1 7.01 23.58C5.63 23.04 4.43 22.28 3.41 21.3C2.39 20.32 1.59 19.17 1.01 17.85C0.45 16.53 0.17 15.08 0.17 13.5C0.17 11.92 0.45 10.47 1.01 9.15C1.59 7.83 2.39 6.68 3.41 5.7C4.45 4.72 5.66 3.97 7.04 3.45C8.42 2.91 9.93 2.64 11.57 2.64C13.39 2.64 15.03 2.96 16.49 3.6C17.97 4.22 19.21 5.14 20.21 6.36L17.09 9.24C16.37 8.42 15.57 7.81 14.69 7.41C13.81 6.99 12.85 6.78 11.81 6.78C10.83 6.78 9.93 6.94 9.11 7.26C8.29 7.58 7.58 8.04 6.98 8.64C6.38 9.24 5.91 9.95 5.57 10.77C5.25 11.59 5.09 12.5 5.09 13.5C5.09 14.5 5.25 15.41 5.57 16.23C5.91 17.05 6.38 17.76 6.98 18.36C7.58 18.96 8.29 19.42 9.11 19.74C9.93 20.06 10.83 20.22 11.81 20.22C12.85 20.22 13.81 20.02 14.69 19.62C15.57 19.2 16.37 18.57 17.09 17.73L20.21 20.61C19.21 21.83 17.97 22.76 16.49 23.4C15.03 24.04 13.38 24.36 11.54 24.36ZM30.6153 24.24C28.7753 24.24 27.1553 23.88 25.7553 23.16C24.3753 22.44 23.3053 21.46 22.5453 20.22C21.7853 18.96 21.4053 17.53 21.4053 15.93C21.4053 14.31 21.7753 12.88 22.5153 11.64C23.2753 10.38 24.3053 9.4 25.6053 8.7C26.9053 7.98 28.3753 7.62 30.0153 7.62C31.5953 7.62 33.0153 7.96 34.2753 8.64C35.5553 9.3 36.5653 10.26 37.3053 11.52C38.0453 12.76 38.4153 14.25 38.4153 15.99C38.4153 16.17 38.4053 16.38 38.3853 16.62C38.3653 16.84 38.3453 17.05 38.3253 17.25H25.2153V14.52H35.8653L34.0653 15.33C34.0653 14.49 33.8953 13.76 33.5553 13.14C33.2153 12.52 32.7453 12.04 32.1453 11.7C31.5453 11.34 30.8453 11.16 30.0453 11.16C29.2453 11.16 28.5353 11.34 27.9153 11.7C27.3153 12.04 26.8453 12.53 26.5053 13.17C26.1653 13.79 25.9953 14.53 25.9953 15.39V16.11C25.9953 16.99 26.1853 17.77 26.5653 18.45C26.9653 19.11 27.5153 19.62 28.2153 19.98C28.9353 20.32 29.7753 20.49 30.7353 20.49C31.5953 20.49 32.3453 20.36 32.9853 20.1C33.6453 19.84 34.2453 19.45 34.7853 18.93L37.2753 21.63C36.5353 22.47 35.6053 23.12 34.4853 23.58C33.3653 24.02 32.0753 24.24 30.6153 24.24ZM51.3411 7.62C52.6211 7.62 53.7611 7.88 54.7611 8.4C55.7811 8.9 56.5811 9.68 57.1611 10.74C57.7411 11.78 58.0311 13.12 58.0311 14.76V24H53.3511V15.48C53.3511 14.18 53.0611 13.22 52.4811 12.6C51.9211 11.98 51.1211 11.67 50.0811 11.67C49.3411 11.67 48.6711 11.83 48.0711 12.15C47.4911 12.45 47.0311 12.92 46.6911 13.56C46.3711 14.2 46.2111 15.02 46.2111 16.02V24H41.5311V7.86H46.0011V12.33L45.1611 10.98C45.7411 9.9 46.5711 9.07 47.6511 8.49C48.7311 7.91 49.9611 7.62 51.3411 7.62ZM68.8733 24.24C66.9733 24.24 65.4933 23.76 64.4333 22.8C63.3733 21.82 62.8433 20.37 62.8433 18.45V4.29H67.5233V18.39C67.5233 19.07 67.7033 19.6 68.0633 19.98C68.4233 20.34 68.9133 20.52 69.5333 20.52C70.2733 20.52 70.9033 20.32 71.4233 19.92L72.6833 23.22C72.2033 23.56 71.6233 23.82 70.9433 24C70.2833 24.16 69.5933 24.24 68.8733 24.24ZM60.3533 11.82V8.22H71.5433V11.82H60.3533ZM75.3104 24V7.86H79.7804V12.42L79.1504 11.1C79.6304 9.96 80.4004 9.1 81.4604 8.52C82.5204 7.92 83.8104 7.62 85.3304 7.62V11.94C85.1304 11.92 84.9504 11.91 84.7904 11.91C84.6304 11.89 84.4604 11.88 84.2804 11.88C83.0004 11.88 81.9604 12.25 81.1604 12.99C80.3804 13.71 79.9904 14.84 79.9904 16.38V24H75.3104ZM96.9584 24V20.85L96.6584 20.16V14.52C96.6584 13.52 96.3484 12.74 95.7284 12.18C95.1284 11.62 94.1984 11.34 92.9384 11.34C92.0784 11.34 91.2284 11.48 90.3884 11.76C89.5684 12.02 88.8684 12.38 88.2884 12.84L86.6084 9.57C87.4884 8.95 88.5484 8.47 89.7884 8.13C91.0284 7.79 92.2884 7.62 93.5684 7.62C96.0284 7.62 97.9384 8.2 99.2984 9.36C100.658 10.52 101.338 12.33 101.338 14.79V24H96.9584ZM92.0384 24.24C90.7784 24.24 89.6984 24.03 88.7984 23.61C87.8984 23.17 87.2084 22.58 86.7284 21.84C86.2484 21.1 86.0084 20.27 86.0084 19.35C86.0084 18.39 86.2384 17.55 86.6984 16.83C87.1784 16.11 87.9284 15.55 88.9484 15.15C89.9684 14.73 91.2984 14.52 92.9384 14.52H97.2284V17.25H93.4484C92.3484 17.25 91.5884 17.43 91.1684 17.79C90.7684 18.15 90.5684 18.6 90.5684 19.14C90.5684 19.74 90.7984 20.22 91.2584 20.58C91.7384 20.92 92.3884 21.09 93.2084 21.09C93.9884 21.09 94.6884 20.91 95.3084 20.55C95.9284 20.17 96.3784 19.62 96.6584 18.9L97.3784 21.06C97.0384 22.1 96.4184 22.89 95.5184 23.43C94.6184 23.97 93.4584 24.24 92.0384 24.24ZM105.574 24V1.74H110.254V24H105.574ZM114.598 24V7.86H119.278V24H114.598ZM116.938 5.61C116.078 5.61 115.378 5.36 114.838 4.86C114.298 4.36 114.028 3.74 114.028 3C114.028 2.26 114.298 1.64 114.838 1.14C115.378 0.639999 116.078 0.389998 116.938 0.389998C117.798 0.389998 118.498 0.629999 119.038 1.11C119.578 1.57 119.848 2.17 119.848 2.91C119.848 3.69 119.578 4.34 119.038 4.86C118.518 5.36 117.818 5.61 116.938 5.61ZM122.511 24V21.18L132.051 9.9L132.861 11.46H122.721V7.86H136.641V10.68L127.101 21.96L126.261 20.4H136.911V24H122.511ZM147.715 24.24C145.875 24.24 144.255 23.88 142.855 23.16C141.475 22.44 140.405 21.46 139.645 20.22C138.885 18.96 138.505 17.53 138.505 15.93C138.505 14.31 138.875 12.88 139.615 11.64C140.375 10.38 141.405 9.4 142.705 8.7C144.005 7.98 145.475 7.62 147.115 7.62C148.695 7.62 150.115 7.96 151.375 8.64C152.655 9.3 153.665 10.26 154.405 11.52C155.145 12.76 155.515 14.25 155.515 15.99C155.515 16.17 155.505 16.38 155.485 16.62C155.465 16.84 155.445 17.05 155.425 17.25H142.315V14.52H152.965L151.165 15.33C151.165 14.49 150.995 13.76 150.655 13.14C150.315 12.52 149.845 12.04 149.245 11.7C148.645 11.34 147.945 11.16 147.145 11.16C146.345 11.16 145.635 11.34 145.015 11.7C144.415 12.04 143.945 12.53 143.605 13.17C143.265 13.79 143.095 14.53 143.095 15.39V16.11C143.095 16.99 143.285 17.77 143.665 18.45C144.065 19.11 144.615 19.62 145.315 19.98C146.035 20.32 146.875 20.49 147.835 20.49C148.695 20.49 149.445 20.36 150.085 20.1C150.745 19.84 151.345 19.45 151.885 18.93L154.375 21.63C153.635 22.47 152.705 23.12 151.585 23.58C150.465 24.02 149.175 24.24 147.715 24.24ZM157.821 28.62L159.801 21.42L160.461 24.12C159.601 24.12 158.891 23.87 158.331 23.37C157.791 22.87 157.521 22.18 157.521 21.3C157.521 20.42 157.801 19.72 158.361 19.2C158.921 18.68 159.611 18.42 160.431 18.42C161.271 18.42 161.961 18.69 162.501 19.23C163.041 19.75 163.311 20.44 163.311 21.3C163.311 21.56 163.291 21.82 163.251 22.08C163.211 22.32 163.131 22.62 163.011 22.98C162.911 23.32 162.741 23.76 162.501 24.3L160.791 28.62H157.821ZM1.49 63V42H10.58C12.46 42 14.08 42.31 15.44 42.93C16.8 43.53 17.85 44.4 18.59 45.54C19.33 46.68 19.7 48.04 19.7 49.62C19.7 51.18 19.33 52.53 18.59 53.67C17.85 54.79 16.8 55.65 15.44 56.25C14.08 56.85 12.46 57.15 10.58 57.15H4.19L6.35 55.02V63H1.49ZM14.84 63L9.59 55.38H14.78L20.09 63H14.84ZM6.35 55.56L4.19 53.28H10.31C11.81 53.28 12.93 52.96 13.67 52.32C14.41 51.66 14.78 50.76 14.78 49.62C14.78 48.46 14.41 47.56 13.67 46.92C12.93 46.28 11.81 45.96 10.31 45.96H4.19L6.35 43.65V55.56ZM31.2305 63.24C29.3905 63.24 27.7705 62.88 26.3705 62.16C24.9905 61.44 23.9205 60.46 23.1605 59.22C22.4005 57.96 22.0205 56.53 22.0205 54.93C22.0205 53.31 22.3905 51.88 23.1305 50.64C23.8905 49.38 24.9205 48.4 26.2205 47.7C27.5205 46.98 28.9905 46.62 30.6305 46.62C32.2105 46.62 33.6305 46.96 34.8905 47.64C36.1705 48.3 37.1805 49.26 37.9205 50.52C38.6605 51.76 39.0305 53.25 39.0305 54.99C39.0305 55.17 39.0205 55.38 39.0005 55.62C38.9805 55.84 38.9605 56.05 38.9405 56.25H25.8305V53.52H36.4805L34.6805 54.33C34.6805 53.49 34.5105 52.76 34.1705 52.14C33.8305 51.52 33.3605 51.04 32.7605 50.7C32.1605 50.34 31.4605 50.16 30.6605 50.16C29.8605 50.16 29.1505 50.34 28.5305 50.7C27.9305 51.04 27.4605 51.53 27.1205 52.17C26.7805 52.79 26.6105 53.53 26.6105 54.39V55.11C26.6105 55.99 26.8005 56.77 27.1805 57.45C27.5805 58.11 28.1305 58.62 28.8305 58.98C29.5505 59.32 30.3905 59.49 31.3505 59.49C32.2105 59.49 32.9605 59.36 33.6005 59.1C34.2605 58.84 34.8605 58.45 35.4005 57.93L37.8905 60.63C37.1505 61.47 36.2205 62.12 35.1005 62.58C33.9805 63.02 32.6905 63.24 31.2305 63.24ZM46.2334 63L39.4534 46.86H44.2834L49.9234 60.75H47.5234L53.3734 46.86H57.8734L51.0634 63H46.2334ZM67.0236 63.24C65.3036 63.24 63.7736 62.88 62.4336 62.16C61.1136 61.44 60.0636 60.46 59.2836 59.22C58.5236 57.96 58.1436 56.53 58.1436 54.93C58.1436 53.31 58.5236 51.88 59.2836 50.64C60.0636 49.38 61.1136 48.4 62.4336 47.7C63.7736 46.98 65.3036 46.62 67.0236 46.62C68.7236 46.62 70.2436 46.98 71.5836 47.7C72.9236 48.4 73.9736 49.37 74.7336 50.61C75.4936 51.85 75.8736 53.29 75.8736 54.93C75.8736 56.53 75.4936 57.96 74.7336 59.22C73.9736 60.46 72.9236 61.44 71.5836 62.16C70.2436 62.88 68.7236 63.24 67.0236 63.24ZM67.0236 59.4C67.8036 59.4 68.5036 59.22 69.1236 58.86C69.7436 58.5 70.2336 57.99 70.5936 57.33C70.9536 56.65 71.1336 55.85 71.1336 54.93C71.1336 53.99 70.9536 53.19 70.5936 52.53C70.2336 51.87 69.7436 51.36 69.1236 51C68.5036 50.64 67.8036 50.46 67.0236 50.46C66.2436 50.46 65.5436 50.64 64.9236 51C64.3036 51.36 63.8036 51.87 63.4236 52.53C63.0636 53.19 62.8836 53.99 62.8836 54.93C62.8836 55.85 63.0636 56.65 63.4236 57.33C63.8036 57.99 64.3036 58.5 64.9236 58.86C65.5436 59.22 66.2436 59.4 67.0236 59.4ZM79.0018 63V40.74H83.6818V63H79.0018ZM94.8352 63.24C93.4952 63.24 92.2952 62.98 91.2352 62.46C90.1952 61.94 89.3852 61.15 88.8052 60.09C88.2252 59.01 87.9352 57.64 87.9352 55.98V46.86H92.6152V55.29C92.6152 56.63 92.8952 57.62 93.4552 58.26C94.0352 58.88 94.8452 59.19 95.8852 59.19C96.6052 59.19 97.2452 59.04 97.8052 58.74C98.3652 58.42 98.8052 57.94 99.1252 57.3C99.4452 56.64 99.6052 55.82 99.6052 54.84V46.86H104.285V63H99.8452V58.56L100.655 59.85C100.115 60.97 99.3152 61.82 98.2552 62.4C97.2152 62.96 96.0752 63.24 94.8352 63.24ZM115.221 63.24C113.321 63.24 111.841 62.76 110.781 61.8C109.721 60.82 109.191 59.37 109.191 57.45V43.29H113.871V57.39C113.871 58.07 114.051 58.6 114.411 58.98C114.771 59.34 115.261 59.52 115.881 59.52C116.621 59.52 117.251 59.32 117.771 58.92L119.031 62.22C118.551 62.56 117.971 62.82 117.291 63C116.631 63.16 115.941 63.24 115.221 63.24ZM106.701 50.82V47.22H117.891V50.82H106.701ZM121.658 63V46.86H126.338V63H121.658ZM123.998 44.61C123.138 44.61 122.438 44.36 121.898 43.86C121.358 43.36 121.088 42.74 121.088 42C121.088 41.26 121.358 40.64 121.898 40.14C122.438 39.64 123.138 39.39 123.998 39.39C124.858 39.39 125.558 39.63 126.098 40.11C126.638 40.57 126.908 41.17 126.908 41.91C126.908 42.69 126.638 43.34 126.098 43.86C125.578 44.36 124.878 44.61 123.998 44.61ZM138.361 63.24C136.641 63.24 135.111 62.88 133.771 62.16C132.451 61.44 131.401 60.46 130.621 59.22C129.861 57.96 129.481 56.53 129.481 54.93C129.481 53.31 129.861 51.88 130.621 50.64C131.401 49.38 132.451 48.4 133.771 47.7C135.111 46.98 136.641 46.62 138.361 46.62C140.061 46.62 141.581 46.98 142.921 47.7C144.261 48.4 145.311 49.37 146.071 50.61C146.831 51.85 147.211 53.29 147.211 54.93C147.211 56.53 146.831 57.96 146.071 59.22C145.311 60.46 144.261 61.44 142.921 62.16C141.581 62.88 140.061 63.24 138.361 63.24ZM138.361 59.4C139.141 59.4 139.841 59.22 140.461 58.86C141.081 58.5 141.571 57.99 141.931 57.33C142.291 56.65 142.471 55.85 142.471 54.93C142.471 53.99 142.291 53.19 141.931 52.53C141.571 51.87 141.081 51.36 140.461 51C139.841 50.64 139.141 50.46 138.361 50.46C137.581 50.46 136.881 50.64 136.261 51C135.641 51.36 135.141 51.87 134.761 52.53C134.401 53.19 134.221 53.99 134.221 54.93C134.221 55.85 134.401 56.65 134.761 57.33C135.141 57.99 135.641 58.5 136.261 58.86C136.881 59.22 137.581 59.4 138.361 59.4ZM160.15 46.62C161.43 46.62 162.57 46.88 163.57 47.4C164.59 47.9 165.39 48.68 165.97 49.74C166.55 50.78 166.84 52.12 166.84 53.76V63H162.16V54.48C162.16 53.18 161.87 52.22 161.29 51.6C160.73 50.98 159.93 50.67 158.89 50.67C158.15 50.67 157.48 50.83 156.88 51.15C156.3 51.45 155.84 51.92 155.5 52.56C155.18 53.2 155.02 54.02 155.02 55.02V63H150.34V46.86H154.81V51.33L153.97 49.98C154.55 48.9 155.38 48.07 156.46 47.49C157.54 46.91 158.77 46.62 160.15 46.62ZM171.082 63V46.86H175.762V63H171.082ZM173.422 44.61C172.562 44.61 171.862 44.36 171.322 43.86C170.782 43.36 170.512 42.74 170.512 42C170.512 41.26 170.782 40.64 171.322 40.14C171.862 39.64 172.562 39.39 173.422 39.39C174.282 39.39 174.982 39.63 175.522 40.11C176.062 40.57 176.332 41.17 176.332 41.91C176.332 42.69 176.062 43.34 175.522 43.86C175.002 44.36 174.302 44.61 173.422 44.61ZM178.995 63V60.18L188.535 48.9L189.345 50.46H179.205V46.86H193.125V49.68L183.585 60.96L182.745 59.4H193.395V63H178.995ZM204.199 63.24C202.359 63.24 200.739 62.88 199.339 62.16C197.959 61.44 196.889 60.46 196.129 59.22C195.369 57.96 194.989 56.53 194.989 54.93C194.989 53.31 195.359 51.88 196.099 50.64C196.859 49.38 197.889 48.4 199.189 47.7C200.489 46.98 201.959 46.62 203.599 46.62C205.179 46.62 206.599 46.96 207.859 47.64C209.139 48.3 210.149 49.26 210.889 50.52C211.629 51.76 211.999 53.25 211.999 54.99C211.999 55.17 211.989 55.38 211.969 55.62C211.949 55.84 211.929 56.05 211.909 56.25H198.799V53.52H209.449L207.649 54.33C207.649 53.49 207.479 52.76 207.139 52.14C206.799 51.52 206.329 51.04 205.729 50.7C205.129 50.34 204.429 50.16 203.629 50.16C202.829 50.16 202.119 50.34 201.499 50.7C200.899 51.04 200.429 51.53 200.089 52.17C199.749 52.79 199.579 53.53 199.579 54.39V55.11C199.579 55.99 199.769 56.77 200.149 57.45C200.549 58.11 201.099 58.62 201.799 58.98C202.519 59.32 203.359 59.49 204.319 59.49C205.179 59.49 205.929 59.36 206.569 59.1C207.229 58.84 207.829 58.45 208.369 57.93L210.859 60.63C210.119 61.47 209.189 62.12 208.069 62.58C206.949 63.02 205.659 63.24 204.199 63.24Z" fill="white"/>
<path d="M185.508 24.36C183.848 24.36 182.308 24.09 180.888 23.55C179.488 23.01 178.268 22.25 177.228 21.27C176.208 20.29 175.408 19.14 174.828 17.82C174.268 16.5 173.988 15.06 173.988 13.5C173.988 11.94 174.268 10.5 174.828 9.18C175.408 7.86 176.218 6.71 177.258 5.73C178.298 4.75 179.518 3.99 180.918 3.45C182.318 2.91 183.838 2.64 185.478 2.64C187.138 2.64 188.658 2.91 190.038 3.45C191.438 3.99 192.648 4.75 193.668 5.73C194.708 6.71 195.518 7.86 196.098 9.18C196.678 10.48 196.968 11.92 196.968 13.5C196.968 15.06 196.678 16.51 196.098 17.85C195.518 19.17 194.708 20.32 193.668 21.3C192.648 22.26 191.438 23.01 190.038 23.55C188.658 24.09 187.148 24.36 185.508 24.36ZM185.478 20.22C186.418 20.22 187.278 20.06 188.058 19.74C188.858 19.42 189.558 18.96 190.158 18.36C190.758 17.76 191.218 17.05 191.538 16.23C191.878 15.41 192.048 14.5 192.048 13.5C192.048 12.5 191.878 11.59 191.538 10.77C191.218 9.95 190.758 9.24 190.158 8.64C189.578 8.04 188.888 7.58 188.088 7.26C187.288 6.94 186.418 6.78 185.478 6.78C184.538 6.78 183.668 6.94 182.868 7.26C182.088 7.58 181.398 8.04 180.798 8.64C180.198 9.24 179.728 9.95 179.388 10.77C179.068 11.59 178.908 12.5 178.908 13.5C178.908 14.48 179.068 15.39 179.388 16.23C179.728 17.05 180.188 17.76 180.768 18.36C181.368 18.96 182.068 19.42 182.868 19.74C183.668 20.06 184.538 20.22 185.478 20.22ZM209.831 24.24C208.471 24.24 207.281 23.94 206.261 23.34C205.241 22.74 204.441 21.83 203.861 20.61C203.301 19.37 203.021 17.81 203.021 15.93C203.021 14.03 203.291 12.47 203.831 11.25C204.371 10.03 205.151 9.12 206.171 8.52C207.191 7.92 208.411 7.62 209.831 7.62C211.351 7.62 212.711 7.97 213.911 8.67C215.131 9.35 216.091 10.31 216.791 11.55C217.511 12.79 217.871 14.25 217.871 15.93C217.871 17.63 217.511 19.1 216.791 20.34C216.091 21.58 215.131 22.54 213.911 23.22C212.711 23.9 211.351 24.24 209.831 24.24ZM200.291 29.82V7.86H204.761V11.16L204.671 15.96L204.971 20.73V29.82H200.291ZM209.021 20.4C209.801 20.4 210.491 20.22 211.091 19.86C211.711 19.5 212.201 18.99 212.561 18.33C212.941 17.65 213.131 16.85 213.131 15.93C213.131 14.99 212.941 14.19 212.561 13.53C212.201 12.87 211.711 12.36 211.091 12C210.491 11.64 209.801 11.46 209.021 11.46C208.241 11.46 207.541 11.64 206.921 12C206.301 12.36 205.811 12.87 205.451 13.53C205.091 14.19 204.911 14.99 204.911 15.93C204.911 16.85 205.091 17.65 205.451 18.33C205.811 18.99 206.301 19.5 206.921 19.86C207.541 20.22 208.241 20.4 209.021 20.4ZM227.604 24.24C225.704 24.24 224.224 23.76 223.164 22.8C222.104 21.82 221.574 20.37 221.574 18.45V4.29H226.254V18.39C226.254 19.07 226.434 19.6 226.794 19.98C227.154 20.34 227.644 20.52 228.264 20.52C229.004 20.52 229.634 20.32 230.154 19.92L231.414 23.22C230.934 23.56 230.354 23.82 229.674 24C229.014 24.16 228.324 24.24 227.604 24.24ZM219.084 11.82V8.22H230.274V11.82H219.084ZM234.041 24V7.86H238.721V24H234.041ZM236.381 5.61C235.521 5.61 234.821 5.36 234.281 4.86C233.741 4.36 233.471 3.74 233.471 3C233.471 2.26 233.741 1.64 234.281 1.14C234.821 0.639999 235.521 0.389998 236.381 0.389998C237.241 0.389998 237.941 0.629999 238.481 1.11C239.021 1.57 239.291 2.17 239.291 2.91C239.291 3.69 239.021 4.34 238.481 4.86C237.961 5.36 237.261 5.61 236.381 5.61ZM263.734 7.62C265.014 7.62 266.144 7.88 267.124 8.4C268.124 8.9 268.904 9.68 269.464 10.74C270.044 11.78 270.334 13.12 270.334 14.76V24H265.654V15.48C265.654 14.18 265.384 13.22 264.844 12.6C264.304 11.98 263.544 11.67 262.564 11.67C261.884 11.67 261.274 11.83 260.734 12.15C260.194 12.45 259.774 12.91 259.474 13.53C259.174 14.15 259.024 14.94 259.024 15.9V24H254.344V15.48C254.344 14.18 254.074 13.22 253.534 12.6C253.014 11.98 252.264 11.67 251.284 11.67C250.604 11.67 249.994 11.83 249.454 12.15C248.914 12.45 248.494 12.91 248.194 13.53C247.894 14.15 247.744 14.94 247.744 15.9V24H243.064V7.86H247.534V12.27L246.694 10.98C247.254 9.88 248.044 9.05 249.064 8.49C250.104 7.91 251.284 7.62 252.604 7.62C254.084 7.62 255.374 8 256.474 8.76C257.594 9.5 258.334 10.64 258.694 12.18L257.044 11.73C257.584 10.47 258.444 9.47 259.624 8.73C260.824 7.99 262.194 7.62 263.734 7.62ZM274.529 24V7.86H279.209V24H274.529ZM276.869 5.61C276.009 5.61 275.309 5.36 274.769 4.86C274.229 4.36 273.959 3.74 273.959 3C273.959 2.26 274.229 1.64 274.769 1.14C275.309 0.639999 276.009 0.389998 276.869 0.389998C277.729 0.389998 278.429 0.629999 278.969 1.11C279.509 1.57 279.779 2.17 279.779 2.91C279.779 3.69 279.509 4.34 278.969 4.86C278.449 5.36 277.749 5.61 276.869 5.61ZM282.443 24V21.18L291.983 9.9L292.793 11.46H282.653V7.86H296.573V10.68L287.033 21.96L286.193 20.4H296.843V24H282.443ZM307.647 24.24C305.807 24.24 304.187 23.88 302.787 23.16C301.407 22.44 300.337 21.46 299.577 20.22C298.817 18.96 298.437 17.53 298.437 15.93C298.437 14.31 298.807 12.88 299.547 11.64C300.307 10.38 301.337 9.4 302.637 8.7C303.937 7.98 305.407 7.62 307.047 7.62C308.627 7.62 310.047 7.96 311.307 8.64C312.587 9.3 313.597 10.26 314.337 11.52C315.077 12.76 315.447 14.25 315.447 15.99C315.447 16.17 315.437 16.38 315.417 16.62C315.397 16.84 315.377 17.05 315.357 17.25H302.247V14.52H312.897L311.097 15.33C311.097 14.49 310.927 13.76 310.587 13.14C310.247 12.52 309.777 12.04 309.177 11.7C308.577 11.34 307.877 11.16 307.077 11.16C306.277 11.16 305.567 11.34 304.947 11.7C304.347 12.04 303.877 12.53 303.537 13.17C303.197 13.79 303.027 14.53 303.027 15.39V16.11C303.027 16.99 303.217 17.77 303.597 18.45C303.997 19.11 304.547 19.62 305.247 19.98C305.967 20.32 306.807 20.49 307.767 20.49C308.627 20.49 309.377 20.36 310.017 20.1C310.677 19.84 311.277 19.45 311.817 18.93L314.307 21.63C313.567 22.47 312.637 23.12 311.517 23.58C310.397 24.02 309.107 24.24 307.647 24.24ZM317.752 28.62L319.732 21.42L320.392 24.12C319.532 24.12 318.822 23.87 318.262 23.37C317.722 22.87 317.452 22.18 317.452 21.3C317.452 20.42 317.732 19.72 318.292 19.2C318.852 18.68 319.542 18.42 320.362 18.42C321.202 18.42 321.892 18.69 322.432 19.23C322.972 19.75 323.242 20.44 323.242 21.3C323.242 21.56 323.222 21.82 323.182 22.08C323.142 22.32 323.062 22.62 322.942 22.98C322.842 23.32 322.672 23.76 322.432 24.3L320.722 28.62H317.752Z" fill="#00F2B2"/>
</svg>
