<svg width="40" height="40" viewBox="0 0 40 40" fill="none" xmlns="http://www.w3.org/2000/svg">
<circle cx="19.825" cy="19.825" r="19.825" fill="#DD1791"/>
<path d="M21 28C21.2549 28.0003 21.5 28.0979 21.6854 28.2728C21.8707 28.4478 21.9822 28.687 21.9972 28.9414C22.0121 29.1958 21.9293 29.4464 21.7657 29.6418C21.6021 29.8373 21.3701 29.9629 21.117 29.993L21 30H19C18.7451 29.9997 18.5 29.9021 18.3146 29.7272C18.1293 29.5522 18.0178 29.313 18.0028 29.0586C17.9879 28.8042 18.0707 28.5536 18.2343 28.3582C18.3979 28.1627 18.6299 28.0371 18.883 28.007L19 28H21ZM20 10C24.41 10 28 13.543 28 17.933C28 20.939 26.478 23.129 25.22 24.427L24.936 24.71L24.666 24.962L24.414 25.182L24.084 25.452L23.756 25.696C23.515 25.866 23.353 26.115 23.206 26.374L23.001 26.738C22.763 27.148 22.484 27.5 21.893 27.5H18.107C17.517 27.5 17.237 27.149 16.999 26.738L16.881 26.53C16.709 26.218 16.533 25.9 16.244 25.696L16.012 25.525L15.813 25.37L15.586 25.182L15.334 24.962L15.064 24.71L14.779 24.427C13.522 23.129 12 20.939 12 17.933C12 13.543 15.59 10 20 10ZM21.707 14.293C21.5348 14.1208 21.3057 14.0174 21.0627 14.0021C20.8197 13.9868 20.5794 14.0607 20.387 14.21L20.293 14.293L18.3 16.286C18.1261 16.4599 18.0217 16.6912 18.0062 16.9366C17.9907 17.182 18.0653 17.4247 18.216 17.619L18.3 17.714L19.586 19L18.293 20.293C18.1137 20.473 18.0095 20.7144 18.0018 20.9684C17.994 21.2223 18.0832 21.4697 18.2512 21.6603C18.4193 21.8508 18.6536 21.9703 18.9065 21.9944C19.1594 22.0185 19.412 21.9454 19.613 21.79L19.707 21.707L21.7 19.714C21.8739 19.5401 21.9783 19.3088 21.9938 19.0634C22.0093 18.818 21.9347 18.5753 21.784 18.381L21.7 18.286L20.414 17L21.707 15.707C21.8945 15.5195 21.9998 15.2652 21.9998 15C21.9998 14.7348 21.8945 14.4805 21.707 14.293Z" fill="white"/>
</svg>
