<svg width="87" height="84" viewBox="0 0 87 84" fill="none" xmlns="http://www.w3.org/2000/svg">
<g filter="url(#filter0_i_1309_262)">
<rect width="86.0323" height="84" rx="16.9355" fill="#080572"/>
</g>
<path d="M53.1888 23.0342H40.5387L37.1484 42.6345C44.5354 27.8605 50.5509 23.9823 53.1888 23.0342Z" fill="#2CD0EE"/>
<path d="M45.0795 33.0383C43.3973 35.3098 38.9068 42.1936 36.9355 45.7992L45.6052 40.4749L50.6854 40.3228L55.4009 35.6073L47.0178 37.1791C48.9103 34.1504 52.3621 31.1265 53.7532 30.3341C56.986 28.4925 59.6671 29.2298 60.4556 31.0101C61.5172 34.7753 58.2523 37.1791 56.1187 37.7706L50.6854 44.2608H54.5124C55.3188 44.2608 56.1361 44.2997 56.8971 44.5665C58.8958 45.2673 59.5103 46.5643 59.6671 47.3706C60.587 52.103 55.9873 53.6354 53.7532 53.7255H43.3711L37.4572 60.7565H53.8321C55.0902 60.7565 56.3575 60.6552 57.5565 60.274C64.4438 58.0845 66.9661 52.7456 67.2894 49.6692C67.8293 44.5312 65.6247 41.3312 63.3468 40.4749C68.2093 37.7706 68.6345 33.8495 68.4722 31.0101C68.2093 26.4129 65.8504 22.7936 58.4843 23.0327C52.9647 23.2118 47.0946 29.7031 45.0795 33.0383Z" fill="#2CD0EE"/>
<path d="M46.2658 30.8913C41.5465 37.2519 38.0225 43.4112 36.6742 45.929L45.1871 42.6854L31.2988 64.9481L57.0529 34.9995L47.6142 37.1198C50.4188 32.3492 54.7606 28.6996 56.3787 27.7111C61.3677 24.6633 66.1743 26.5348 67.9272 27.9925C67.1167 25.1153 64.2892 23.8239 63.1206 23.4704C54.4533 21.1052 48.8278 27.4384 46.2658 30.8913Z" fill="white"/>
<path d="M28.6806 23.0342H15.582L34.5281 56.5664L41.7791 45.2348L35.9315 48.0099L28.6806 23.0342Z" fill="#2CD0EE"/>
<path d="M51.2099 38.6708L40.5234 54.2421L56.9859 35.0359L47.9104 36.9354C51.9029 29.4387 57.5748 26.8035 59.593 26.1748C51.2099 28.6269 46.1646 36.3131 44.6898 39.8497L51.2099 38.6708Z" fill="url(#paint0_linear_1309_262)"/>
<defs>
<filter id="filter0_i_1309_262" x="0" y="-1.82609" width="86.0332" height="85.8261" filterUnits="userSpaceOnUse" color-interpolation-filters="sRGB">
<feFlood flood-opacity="0" result="BackgroundImageFix"/>
<feBlend mode="normal" in="SourceGraphic" in2="BackgroundImageFix" result="shape"/>
<feColorMatrix in="SourceAlpha" type="matrix" values="0 0 0 0 0 0 0 0 0 0 0 0 0 0 0 0 0 0 127 0" result="hardAlpha"/>
<feOffset dy="-5.02174"/>
<feGaussianBlur stdDeviation="0.913044"/>
<feComposite in2="hardAlpha" operator="arithmetic" k2="-1" k3="1"/>
<feColorMatrix type="matrix" values="0 0 0 0 0 0 0 0 0 0 0 0 0 0 0 0 0 0 0.15 0"/>
<feBlend mode="normal" in2="shape" result="effect1_innerShadow_1309_262"/>
</filter>
<linearGradient id="paint0_linear_1309_262" x1="54.0311" y1="28.2821" x2="44.3225" y2="51.2873" gradientUnits="userSpaceOnUse">
<stop stop-color="#FBFBFB"/>
<stop offset="1" stop-color="#C1C0C0"/>
</linearGradient>
</defs>
</svg>
