<svg width="39" height="39" viewBox="0 0 39 39" fill="none" xmlns="http://www.w3.org/2000/svg">
<circle cx="19.4822" cy="19.4822" r="19.4822" fill="#0CC13F"/>
<path d="M12 26.0002V17.3082C12 17.0522 12.0573 16.8099 12.172 16.5812C12.2867 16.3526 12.4447 16.1642 12.646 16.0162L18.031 11.9382C18.313 11.7229 18.635 11.6152 18.997 11.6152C19.359 11.6152 19.683 11.7229 19.969 11.9382L25.354 16.0152C25.556 16.1632 25.714 16.3519 25.828 16.5812C25.9427 16.8099 26 17.0522 26 17.3082V26.0002C26 26.2682 25.9003 26.5019 25.701 26.7012C25.5017 26.9006 25.268 27.0002 25 27.0002H21.616C21.3867 27.0002 21.1947 26.9229 21.04 26.7682C20.8853 26.6129 20.808 26.4209 20.808 26.1922V21.4232C20.808 21.1946 20.7307 21.0029 20.576 20.8482C20.4207 20.6929 20.2287 20.6152 20 20.6152H18C17.7713 20.6152 17.5797 20.6929 17.425 20.8482C17.2697 21.0029 17.192 21.1946 17.192 21.4232V26.1932C17.192 26.4219 17.1147 26.6136 16.96 26.7682C16.8053 26.9229 16.6137 27.0002 16.385 27.0002H13C12.732 27.0002 12.4983 26.9006 12.299 26.7012C12.0997 26.5019 12 26.2682 12 26.0002Z" fill="white"/>
</svg>
