<svg width="40" height="40" viewBox="0 0 40 40" fill="none" xmlns="http://www.w3.org/2000/svg">
<circle cx="19.825" cy="19.825" r="19.825" fill="#EBB800"/>
<g clip-path="url(#clip0_1309_467)">
<path d="M22 13V12.31C22.0013 12.2706 21.9949 12.2313 21.981 12.1944C21.9672 12.1575 21.9462 12.1237 21.9193 12.0949C21.8923 12.0661 21.86 12.0429 21.8241 12.0266C21.7882 12.0103 21.7494 12.0013 21.71 12H18.29C18.2506 12.0013 18.2118 12.0103 18.1759 12.0266C18.14 12.0429 18.1077 12.0661 18.0807 12.0949C18.0538 12.1237 18.0328 12.1575 18.019 12.1944C18.0051 12.2313 17.9987 12.2706 18 12.31V13H16C15.8651 13.0112 15.7392 13.0721 15.6468 13.171C15.5543 13.2699 15.502 13.3997 15.5 13.535V27.535C15.5089 27.6615 15.5654 27.7798 15.6583 27.8661C15.7511 27.9525 15.8732 28.0003 16 28H24C24.1276 28.0002 24.2504 27.9517 24.3434 27.8643C24.4363 27.7769 24.4923 27.6573 24.5 27.53V13.53C24.4968 13.3955 24.4439 13.267 24.3516 13.1692C24.2593 13.0713 24.1341 13.0111 24 13H22ZM21.13 23.72C21.2009 23.8626 21.2124 24.0275 21.1617 24.1784C21.1111 24.3294 21.0026 24.4541 20.86 24.525C20.7174 24.5959 20.5525 24.6074 20.4016 24.5567C20.2506 24.5061 20.1259 24.3976 20.055 24.255L17.325 18.78L20.325 19.28L19.18 17.28C19.1406 17.2117 19.115 17.1363 19.1048 17.0582C19.0945 16.98 19.0997 16.9006 19.1202 16.8244C19.1406 16.7483 19.1758 16.6769 19.2238 16.6144C19.2719 16.5519 19.3317 16.4994 19.4 16.46C19.4683 16.4206 19.5437 16.395 19.6218 16.3848C19.7 16.3745 19.7794 16.3797 19.8556 16.4002C19.9317 16.4206 20.0031 16.4558 20.0656 16.5038C20.1281 16.5519 20.1806 16.6117 20.22 16.68L22.635 20.865L19.45 20.35L21.13 23.72Z" fill="white"/>
</g>
<defs>
<clipPath id="clip0_1309_467">
<rect width="18" height="18" fill="white" transform="translate(11 11)"/>
</clipPath>
</defs>
</svg>
